<?xml version="1.0" standalone="no"?>
<!DOCTYPE svg PUBLIC "-//W3C//DTD SVG 1.1//EN" "http://www.w3.org/Graphics/SVG/1.1/DTD/svg11.dtd" >
<svg>
<metadata>
Created by FontForge 20120731 at Wed Aug  3 16:59:47 2016
 By Apache
Copyright \(c\) 2013 by Mart?n Sommaruga. All rights reserved.www.tipotype.com
</metadata>
<defs>
<font id="Marine-Regular" horiz-adv-x="535" >
  <font-face 
    font-family="Marine"
    font-weight="400"
    font-stretch="normal"
    units-per-em="1000"
    panose-1="2 0 5 3 4 0 0 2 0 4"
    ascent="760"
    descent="-240"
    x-height="502"
    cap-height="668"
    bbox="-90 -296 1087 964"
    underline-thickness="50"
    underline-position="-50"
    unicode-range="U+0020-FB02"
  />
<missing-glyph horiz-adv-x="500" 
 />
    <glyph glyph-name="fi" unicode="fi" horiz-adv-x="575" 
d="M204 502h304v-502h-84v435h-221v-435h-84v435h-98v67h99v35c1 124 83 179 199 179c48 0 96 -6 144 -18l-19 -67c-43 10 -84 15 -121 15c-72 0 -119 -33 -119 -106v-38z" />
    <glyph glyph-name="fl" unicode="fl" horiz-adv-x="637" 
d="M522 682v-581c0 -31 13 -46 39 -46c19 0 44 4 73 12l7 -63c-35 -11 -67 -17 -96 -17c-51 0 -83 17 -95 45s-14 43 -14 68v530c-36 10 -74 15 -114 15c-80 0 -120 -35 -120 -105v-38h150v-67h-149v-435h-83v435h-99v67h98v35c0 128 80 179 199 179c65 0 133 -11 204 -34z
" />
    <glyph glyph-name=".notdef" horiz-adv-x="500" 
 />
    <glyph glyph-name="NULL" horiz-adv-x="0" 
 />
    <glyph glyph-name="CR.001" horiz-adv-x="333" 
 />
    <glyph glyph-name="space" unicode=" " horiz-adv-x="210" 
 />
    <glyph glyph-name="exclam" unicode="!" horiz-adv-x="227" 
d="M65 700h99l-12 -516h-76zM169 0h-110v110h110v-110z" />
    <glyph glyph-name="quotedbl" unicode="&#x22;" horiz-adv-x="352" 
d="M65 481l-13 219h87l-14 -219h-60zM227 481l-13 219h87l-14 -219h-60z" />
    <glyph glyph-name="numbersign" unicode="#" horiz-adv-x="595" 
d="M547 190h-146l-38 -204h-78l36 204h-114l-37 -204h-79l36 204h-83v77h96l22 122h-114v77h128l36 202h80l-37 -202h115l37 202h78l-36 -202h102v-77h-115l-22 -122h133v-77zM335 267l21 122h-113l-22 -122h114z" />
    <glyph glyph-name="dollar" unicode="$" horiz-adv-x="510" 
d="M298 -102h-78l4 87c-33 1 -69 7 -106 18s-66 24 -87 38l28 71c73 -36 134 -54 183 -54c89 0 150 47 150 110c0 36 -15 66 -51 91c-18 13 -34 23 -48 30s-34 17 -59 28c-29 13 -51 23 -67 31c-15 8 -33 19 -54 34c-40 31 -58 69 -58 118c0 88 67 153 171 166l-6 103h79
l-5 -101c64 -2 122 -17 175 -46l-32 -67c-57 28 -114 42 -171 42c-76 0 -122 -35 -123 -92c3 -53 53 -87 145 -128c25 -11 43 -19 56 -26s30 -16 50 -29c56 -35 81 -75 86 -145c0 -97 -70 -168 -186 -188z" />
    <glyph glyph-name="percent" unicode="%" horiz-adv-x="859" 
d="M202 327c-47 0 -83 12 -106 37s-34 72 -34 142s12 118 36 143s60 38 107 38s82 -13 105 -38s35 -73 35 -142c0 -70 -12 -118 -36 -143c-23 -25 -59 -37 -107 -37zM203 632c-24 0 -42 -10 -53 -29s-16 -51 -16 -96s5 -77 16 -96s29 -28 53 -28c48 0 69 33 69 124
c0 89 -22 125 -69 125zM622 -7c-47 0 -83 12 -106 37s-34 72 -34 142s12 118 36 143s60 38 107 38s82 -13 105 -38s35 -73 35 -142c0 -70 -12 -118 -36 -143c-23 -25 -59 -37 -107 -37zM623 298c-47 0 -68 -34 -68 -125s21 -124 68 -124c48 0 69 33 69 124s-21 125 -69 125z
M647 701l-361 -701h-92l362 701h91z" />
    <glyph glyph-name="ampersand" unicode="&#x26;" horiz-adv-x="735" 
d="M43 180c0 103 62 166 171 218c-43 53 -60 89 -60 140c0 93 61 151 165 151c95 0 153 -48 153 -129c0 -39 -12 -71 -44 -103c-15 -16 -29 -29 -40 -38s-28 -23 -51 -40l173 -185c45 58 71 127 78 207h83c-7 -99 -41 -189 -104 -268c22 -20 49 -40 80 -60
c32 -19 58 -33 79 -42l-36 -62c-23 8 -53 22 -88 42s-66 41 -94 63c-63 -59 -140 -88 -231 -88c-145 0 -234 70 -234 194zM459 132l-198 209c-45 -21 -78 -43 -98 -64s-30 -50 -30 -87c0 -86 50 -129 150 -129c75 0 123 20 176 71zM238 543c0 -31 17 -68 50 -111
c60 44 93 79 93 128c0 43 -22 65 -66 65c-49 0 -77 -37 -77 -82z" />
    <glyph glyph-name="quotesingle" unicode="'" horiz-adv-x="193" 
d="M66 460l-13 240h87l-14 -240h-60z" />
    <glyph glyph-name="parenleft" unicode="(" horiz-adv-x="291" 
d="M199 753l66 -43c-173 -275 -173 -527 0 -802l-66 -43c-208 300 -208 588 0 888z" />
    <glyph glyph-name="parenright" unicode=")" horiz-adv-x="290" 
d="M92 -135l-66 43c87 139 130 273 130 401s-43 262 -130 401l66 43c207 -299 207 -589 0 -888z" />
    <glyph glyph-name="asterisk" unicode="*" horiz-adv-x="391" 
d="M349 579l-102 -40l102 -45l-41 -66l-83 66l9 -112h-77l9 114l-84 -68l-39 67l102 42l-102 42l38 69l85 -67l-9 112h77l-8 -112l83 67z" />
    <glyph glyph-name="plus" unicode="+" horiz-adv-x="468" 
d="M273 239v-154h-79v154h-152v79h152v152h79v-152h153v-79h-153z" />
    <glyph glyph-name="comma" unicode="," horiz-adv-x="220" 
d="M163 59c0 -70 -30 -132 -89 -187h-83c55 63 82 121 82 172c0 22 -6 46 -17 72h95c8 -17 12 -36 12 -57z" />
    <glyph glyph-name="hyphen" unicode="-" horiz-adv-x="509" 
d="M63 318h383v-79h-383v79z" />
    <glyph glyph-name="period" unicode="." horiz-adv-x="216" 
d="M163 0h-110v110h110v-110z" />
    <glyph glyph-name="slash" unicode="/" horiz-adv-x="428" 
d="M337 710l73 -26l-317 -748l-75 26z" />
    <glyph glyph-name="zero" unicode="0" horiz-adv-x="567" 
d="M280 -14c-151 0 -228 76 -228 345c4 271 70 350 236 351c82 0 140 -25 175 -75s53 -141 53 -272c0 -129 -19 -220 -58 -272c-38 -51 -97 -77 -178 -77zM286 610c-53 0 -91 -20 -112 -59s-32 -112 -32 -217c0 -107 10 -180 29 -218s57 -57 113 -57c55 0 92 19 111 57
s29 111 29 218c0 105 -11 177 -32 216c-21 40 -56 60 -106 60z" />
    <glyph glyph-name="one" unicode="1" horiz-adv-x="354" 
d="M279 673v-673h-86v582l-159 -49l-20 64l200 76h65z" />
    <glyph glyph-name="two" unicode="2" horiz-adv-x="521" 
d="M156 78h329v-78h-457v71l80 67c32 25 56 45 73 59c17 15 39 35 66 62c28 27 49 51 63 71c29 41 56 99 56 150c0 87 -53 123 -130 123c-46 0 -97 -13 -154 -38l-30 65c58 32 123 48 195 48c125 0 207 -58 207 -197c0 -72 -36 -149 -100 -221c-63 -71 -119 -121 -198 -182z
" />
    <glyph glyph-name="three" unicode="3" horiz-adv-x="488" 
d="M181 326h-60v66c147 1 202 42 202 123c0 64 -39 96 -116 96c-45 0 -93 -10 -142 -31l-23 67c55 23 112 34 171 34c57 0 105 -13 142 -38s56 -66 56 -123c0 -73 -30 -124 -90 -152c81 -27 121 -83 121 -167c0 -73 -23 -127 -68 -162s-102 -52 -171 -52
c-58 0 -116 11 -175 34l23 75c52 -23 101 -35 146 -35c89 0 154 43 154 138c0 79 -62 127 -170 127z" />
    <glyph glyph-name="four" unicode="4" horiz-adv-x="566" 
d="M539 253v-70h-117v-183h-87v183h-310v54l313 431h84v-415h117zM133 253h202v277z" />
    <glyph glyph-name="five" unicode="5" horiz-adv-x="499" 
d="M457 225c-1 -85 -23 -146 -66 -183s-99 -55 -167 -55c-69 0 -131 12 -187 36l24 76c55 -25 105 -37 151 -37c102 0 153 53 153 158c0 87 -53 128 -126 128c-36 0 -76 -11 -120 -33l-52 26v327h350v-72h-264v-189c34 10 69 15 106 15c117 0 198 -60 198 -197z" />
    <glyph glyph-name="six" unicode="6" horiz-adv-x="528" 
d="M267 -14c-74 0 -129 23 -165 68c-35 45 -53 123 -53 234c0 123 27 220 80 289c53 70 123 105 209 105c35 0 71 -7 108 -20l-21 -68c-27 9 -53 14 -78 14c-109 0 -175 -78 -199 -209c46 22 95 33 146 33c113 0 194 -64 194 -200c0 -131 -52 -246 -221 -246zM400 232
c0 87 -47 123 -116 123c-47 0 -96 -12 -145 -37c3 -215 34 -258 132 -260c93 0 129 63 129 174z" />
    <glyph glyph-name="seven" unicode="7" horiz-adv-x="468" 
d="M24 668h427v-60c-67 -120 -121 -227 -164 -322c-42 -95 -72 -190 -89 -286h-92c5 55 32 143 80 263c49 121 103 230 162 328h-324v77z" />
    <glyph glyph-name="eight" unicode="8" horiz-adv-x="542" 
d="M275 -14c-156 0 -230 71 -230 191c0 77 52 147 125 183c-63 40 -94 92 -94 155c0 108 74 167 199 167c127 0 195 -56 195 -155c0 -71 -41 -130 -113 -166c89 -37 139 -90 139 -181c0 -55 -18 -101 -54 -138s-92 -56 -167 -56zM409 182c0 69 -56 104 -171 145
c-69 -36 -104 -86 -104 -150c0 -79 46 -119 137 -119c92 0 138 41 138 124zM276 612c-71 0 -118 -29 -118 -89c0 -59 41 -104 124 -133c69 31 106 83 106 130c0 61 -37 92 -112 92z" />
    <glyph glyph-name="nine" unicode="9" horiz-adv-x="530" 
d="M262 682c75 0 130 -23 165 -68c36 -45 54 -123 54 -234c0 -123 -27 -220 -80 -290c-53 -69 -123 -104 -209 -104c-37 0 -73 7 -109 21l21 68c24 -10 50 -15 78 -15c109 0 175 79 199 208c-38 -21 -86 -32 -145 -32c-113 0 -195 64 -195 201c0 131 52 245 221 245z
M130 437c0 -88 48 -126 120 -126c57 0 104 13 140 38c-4 223 -37 260 -132 261c-96 0 -128 -58 -128 -173z" />
    <glyph glyph-name="colon" unicode=":" horiz-adv-x="249" 
d="M179 0h-110v110h110v-110zM179 300h-110v110h110v-110z" />
    <glyph glyph-name="semicolon" unicode=";" horiz-adv-x="252" 
d="M183 60c0 -70 -30 -132 -89 -187h-83c55 63 82 121 82 172c0 22 -6 46 -17 72h95c8 -17 12 -36 12 -57zM179 300h-110v110h110v-110z" />
    <glyph glyph-name="less" unicode="&#x3c;" horiz-adv-x="437" 
d="M378 105l-341 170v70l341 171v-85l-240 -120l240 -122v-84z" />
    <glyph glyph-name="equal" unicode="=" horiz-adv-x="464" 
d="M63 432h338v-79h-338v79zM63 240h338v-80h-338v80z" />
    <glyph glyph-name="greater" unicode="&#x3e;" horiz-adv-x="437" 
d="M59 516l341 -171v-70l-341 -170v84l240 122l-240 120v85z" />
    <glyph glyph-name="question" unicode="?" horiz-adv-x="339" 
d="M223 492c9 71 -60 111 -177 122l18 77c76 -3 138 -23 185 -58s68 -82 62 -139c-11 -130 -153 -135 -164 -269l-2 -59h-77c-2 37 -3 61 -2 72c11 136 146 171 157 254zM166 0h-110v110h110v-110z" />
    <glyph glyph-name="at" unicode="@" horiz-adv-x="761" 
d="M555 125c-49 0 -82 20 -97 60c-23 -37 -64 -61 -109 -61c-84 0 -143 58 -143 155c0 68 19 123 58 166s88 64 147 64c38 0 81 -10 129 -31l-18 -203c-1 -9 -1 -20 -1 -33c0 -35 14 -52 42 -52c53 0 79 62 79 185c0 147 -71 235 -231 235c-82 0 -149 -29 -202 -86
c-52 -57 -78 -132 -78 -226c0 -89 23 -157 70 -204s106 -70 177 -70c67 0 139 18 214 54l28 -63c-95 -43 -178 -65 -250 -65c-92 0 -169 30 -232 89c-62 59 -93 144 -93 254c0 113 34 206 103 278c69 73 158 109 266 109c204 0 310 -117 310 -306c0 -166 -56 -249 -169 -249
zM413 447c-35 0 -65 -15 -88 -46c-23 -30 -35 -68 -35 -114c0 -66 23 -99 69 -99c44 0 75 41 80 98l13 155c-12 4 -25 6 -39 6z" />
    <glyph glyph-name="A" unicode="A" horiz-adv-x="605" 
d="M443 175h-281l-62 -175h-92l243 668h103l243 -668h-92zM417 248l-115 329l-115 -329h230z" />
    <glyph glyph-name="B" unicode="B" horiz-adv-x="579" 
d="M489 504c0 -60 -30 -119 -81 -140c83 -23 126 -86 126 -174c0 -76 -33 -131 -86 -160s-114 -41 -189 -41c-57 0 -117 7 -180 21v647c72 11 136 17 191 17c146 0 219 -57 219 -170zM265 322h-98v-252c37 -7 71 -11 104 -11c49 0 90 10 123 30c33 21 50 55 50 104
c0 86 -60 129 -179 129zM167 597v-201h127c65 4 106 43 106 103c0 70 -45 105 -134 105c-42 0 -75 -2 -99 -7z" />
    <glyph glyph-name="C" unicode="C" horiz-adv-x="556" 
d="M146 339c0 -104 17 -177 52 -218s88 -62 157 -62c37 0 87 5 149 16l9 -70c-53 -13 -108 -19 -167 -19c-103 0 -177 32 -224 95c-47 64 -70 150 -70 257c0 272 145 344 291 344c63 0 121 -9 174 -26l-15 -68c-51 15 -103 22 -156 22c-63 0 -112 -21 -147 -62
s-53 -110 -53 -209z" />
    <glyph glyph-name="D" unicode="D" horiz-adv-x="648" 
d="M79 6v656c73 9 134 13 185 13c108 0 182 -19 241 -70c60 -51 90 -141 90 -272c-1 -273 -154 -344 -337 -344c-41 0 -101 6 -179 17zM168 599v-526c32 -6 63 -9 93 -9c147 0 239 82 239 270c0 185 -75 271 -234 271c-31 0 -63 -2 -98 -6z" />
    <glyph glyph-name="E" unicode="E" 
d="M167 74h316v-74h-404v668h393v-74h-305v-213h289v-74h-289v-233z" />
    <glyph glyph-name="F" unicode="F" horiz-adv-x="512" 
d="M472 668v-74h-305v-213h288v-74h-288v-307h-88v668h393z" />
    <glyph glyph-name="G" unicode="G" horiz-adv-x="607" 
d="M51 335c0 131 37 228 97 277s127 70 207 70c61 0 119 -8 175 -23l-17 -73c-48 14 -101 21 -160 21c-104 0 -208 -60 -208 -268c0 -185 75 -277 226 -277c33 0 66 4 100 12v238h82v-291c-70 -23 -134 -34 -192 -34c-167 0 -310 86 -310 348z" />
    <glyph glyph-name="H" unicode="H" horiz-adv-x="650" 
d="M167 381h316v287h88v-668h-88v307h-316v-307h-88v668h88v-287z" />
    <glyph glyph-name="I" unicode="I" horiz-adv-x="246" 
d="M79 668h88v-668h-88v668z" />
    <glyph glyph-name="J" unicode="J" horiz-adv-x="251" 
d="M86 668h87v-680c0 -99 -46 -148 -138 -148c-21 0 -47 3 -76 9l4 65c32 -2 52 -3 61 -3c39 0 62 17 62 76v681z" />
    <glyph glyph-name="K" unicode="K" horiz-adv-x="614" 
d="M79 668h88v-296h60l229 295h109l-267 -329l302 -338h-116l-258 298h-59v-298h-88v668z" />
    <glyph glyph-name="L" unicode="L" horiz-adv-x="470" 
d="M167 74h283v-74h-371v668h88v-594z" />
    <glyph glyph-name="M" unicode="M" horiz-adv-x="820" 
d="M95 668h112l205 -471l203 471h110l30 -668h-88l-20 539l-199 -440h-77l-198 440l-20 -539h-88z" />
    <glyph glyph-name="N" unicode="N" horiz-adv-x="695" 
d="M527 137v531h89v-668h-98l-351 531v-531h-88v668h98z" />
    <glyph glyph-name="O" unicode="O" horiz-adv-x="658" 
d="M330 682c88 0 155 -27 195 -68c62 -67 83 -166 82 -280c0 -79 -7 -141 -34 -202c-36 -87 -110 -146 -246 -146c-91 0 -159 28 -199 68c-20 20 -36 46 -48 77c-23 63 -29 122 -29 203c0 100 15 175 55 242c40 68 116 106 224 106zM329 55c154 0 188 122 188 279
c0 85 -9 146 -36 199s-77 82 -152 82s-125 -29 -153 -82c-27 -53 -36 -114 -36 -199c0 -84 9 -145 36 -198c27 -52 78 -81 153 -81z" />
    <glyph glyph-name="P" unicode="P" horiz-adv-x="556" 
d="M79 0v660c53 10 112 15 177 15c60 0 104 -4 153 -21c69 -23 117 -76 117 -180c0 -79 -31 -138 -83 -169s-110 -44 -182 -44c-33 0 -64 3 -93 9v-270h-89zM168 600v-262c28 -5 57 -8 88 -8c120 0 180 46 180 139c0 57 -20 97 -56 114c-36 19 -72 24 -124 24
c-37 0 -66 -2 -88 -7z" />
    <glyph glyph-name="Q" unicode="Q" horiz-adv-x="658" 
d="M331 679c109 0 185 -37 224 -105c40 -68 55 -143 55 -244c0 -78 -13 -146 -40 -205s-70 -97 -130 -115c112 -20 198 -45 257 -76l-54 -68c-8 5 -20 13 -36 22c-15 9 -51 24 -108 45c-56 21 -117 37 -183 49c-88 3 -152 31 -191 71c-19 21 -34 46 -45 77
c-23 63 -29 120 -29 200c0 100 15 176 55 243c40 68 117 106 225 106zM330 47c157 0 190 124 190 283c0 87 -9 148 -36 201c-27 55 -78 83 -154 83c-75 0 -126 -28 -153 -83c-27 -53 -36 -114 -36 -201c0 -85 9 -146 36 -201c27 -53 78 -82 153 -82z" />
    <glyph glyph-name="R" unicode="R" horiz-adv-x="584" 
d="M559 0h-107l-183 259h-14c-32 0 -61 2 -87 7v-266h-89v661c62 9 119 14 171 14c60 0 104 -4 153 -21c69 -22 117 -75 117 -179c0 -108 -52 -176 -157 -203zM168 600v-264c31 -6 61 -9 89 -9c49 0 90 11 123 33c33 23 50 59 50 110c0 57 -20 96 -56 113s-71 23 -124 23
c-28 0 -55 -2 -82 -6z" />
    <glyph glyph-name="S" unicode="S" horiz-adv-x="515" 
d="M39 29l20 75c61 -27 121 -41 179 -41c97 0 145 37 145 112c0 37 -13 65 -45 85c-32 21 -51 30 -102 47c-65 23 -114 48 -145 75s-47 64 -47 113c0 66 21 113 64 141c43 29 97 43 164 43c50 0 106 -8 167 -23l-18 -70c-57 15 -106 23 -149 23c-90 0 -135 -34 -135 -101
s48 -95 144 -128c133 -48 195 -96 195 -195c0 -67 -23 -117 -70 -150c-47 -32 -105 -48 -175 -48c-67 0 -131 14 -192 42z" />
    <glyph glyph-name="T" unicode="T" horiz-adv-x="513" 
d="M214 594h-196v74h477v-74h-195v-594h-86v594z" />
    <glyph glyph-name="U" unicode="U" horiz-adv-x="643" 
d="M568 668v-425c0 -176 -72 -256 -247 -257c-168 0 -246 81 -246 257v425h88v-410c0 -135 36 -197 160 -197c59 0 100 15 123 45c23 31 35 81 35 152v410h87z" />
    <glyph glyph-name="V" unicode="V" horiz-adv-x="584" 
d="M293 109l191 559h93l-235 -668h-98l-237 668h99z" />
    <glyph glyph-name="W" unicode="W" horiz-adv-x="832" 
d="M187 117l184 500h87l187 -499l53 550h92l-82 -668h-108l-185 502l-181 -502h-112l-80 668h92z" />
    <glyph glyph-name="X" unicode="X" horiz-adv-x="611" 
d="M356 347l238 -347h-109l-181 272l-183 -272h-103l234 340l-222 328h101l174 -257l172 257h103z" />
    <glyph glyph-name="Y" unicode="Y" horiz-adv-x="553" 
d="M232 275l-229 393h100l176 -306l176 306h93l-226 -393v-275h-90v275z" />
    <glyph glyph-name="Z" unicode="Z" horiz-adv-x="557" 
d="M145 74h376v-74h-475l-7 62l354 532h-339l-12 74h446l8 -66z" />
    <glyph glyph-name="bracketleft" unicode="[" horiz-adv-x="303" 
d="M271 -141h-199v907h199v-71l-113 -6v-753l113 -7v-70z" />
    <glyph glyph-name="backslash" unicode="\" horiz-adv-x="391" 
d="M373 -37l-76 -26l-279 791l75 27z" />
    <glyph glyph-name="bracketright" unicode="]" horiz-adv-x="303" 
d="M32 765h199v-906h-199v71l113 6v752l-113 7v70z" />
    <glyph glyph-name="asciicircum" unicode="^" horiz-adv-x="492" 
d="M40 297l171 344h70l170 -344h-86l-120 246l-119 -246h-86z" />
    <glyph glyph-name="underscore" unicode="_" horiz-adv-x="552" 
d="M63 74h426v-74h-426v74z" />
    <glyph glyph-name="grave" unicode="`" horiz-adv-x="356" 
d="M290 632l-36 -55l-172 104l48 73z" />
    <glyph glyph-name="a" unicode="a" horiz-adv-x="476" 
d="M426 333v-311c-64 -23 -133 -34 -206 -34c-52 0 -96 11 -132 33c-36 23 -54 59 -54 109c0 38 10 69 30 93c40 48 95 61 166 61c37 0 74 -5 111 -16v61c0 76 -22 110 -105 110c-36 0 -86 -8 -150 -25l-16 64c23 10 53 18 89 24s66 9 89 9c127 0 178 -54 178 -178zM341 66
v148c-28 9 -58 13 -89 13c-75 0 -132 -31 -132 -96c0 -53 40 -80 121 -80c35 0 69 5 100 15z" />
    <glyph glyph-name="b" unicode="b" horiz-adv-x="540" 
d="M148 413v-338c28 -11 64 -17 109 -17c53 0 92 19 115 56s35 86 35 145c0 121 -45 182 -136 182c-37 0 -78 -9 -123 -28zM254 -14c-71 0 -134 11 -188 34v680h82v-216c43 20 87 30 134 30c129 0 213 -82 213 -254c0 -142 -56 -274 -241 -274z" />
    <glyph glyph-name="c" unicode="c" horiz-adv-x="464" 
d="M420 489l-17 -65c-36 12 -76 18 -120 18c-84 0 -148 -59 -148 -192c0 -135 65 -194 156 -194c41 0 83 8 125 24l13 -66c-53 -19 -100 -28 -141 -28c-71 0 -130 22 -176 65c-45 44 -68 110 -68 199c0 87 23 152 69 197c47 45 103 67 168 67c43 0 90 -8 139 -25z" />
    <glyph glyph-name="d" unicode="d" horiz-adv-x="547" 
d="M397 67v361c-34 12 -68 18 -103 18c-105 0 -157 -71 -157 -212c0 -124 61 -181 164 -181c29 0 61 5 96 14zM46 233c0 86 18 154 55 205s96 76 179 76c45 0 84 -5 117 -16v214h83v-699c-87 -17 -153 -25 -197 -25c-69 0 -121 13 -166 48c-45 36 -71 102 -71 197z" />
    <glyph glyph-name="e" unicode="e" horiz-adv-x="513" 
d="M283 -14c-159 0 -239 89 -239 266c0 73 19 134 57 185s94 76 167 76c135 0 203 -70 203 -190c0 -21 -3 -47 -8 -77h-330c0 -133 62 -189 182 -189c47 0 89 8 128 25l11 -69c-46 -18 -103 -27 -171 -27zM271 447c-105 0 -136 -101 -136 -135h249c1 4 1 10 1 18
c0 75 -43 117 -114 117z" />
    <glyph glyph-name="f" unicode="f" horiz-adv-x="343" 
d="M203 0h-84v435h-98v67h98v40c0 129 60 179 181 179c35 0 71 -4 106 -11l-14 -66c-40 5 -72 7 -96 7c-65 0 -93 -23 -93 -106v-43h149v-67h-149v-435z" />
    <glyph glyph-name="g" unicode="g" horiz-adv-x="524" 
d="M255 505c11 0 29 -1 54 -3s44 -3 58 -3c41 0 88 4 142 13l8 -56c-64 -10 -104 -15 -120 -15c27 -30 40 -67 40 -110c0 -116 -74 -175 -191 -175c-22 0 -42 2 -60 5c-8 -13 -12 -28 -12 -46c0 -15 3 -27 9 -37h146c107 -1 160 -41 160 -120c0 -115 -94 -186 -253 -186
c-128 0 -207 50 -207 134c0 52 32 96 95 133c-14 14 -21 33 -21 57c0 33 12 62 35 85c-54 29 -81 79 -81 152c0 108 66 172 198 172zM137 332c0 -79 36 -118 109 -118c80 0 115 48 115 117c0 75 -33 113 -113 113c-73 0 -111 -41 -111 -112zM308 8l-130 1
c-40 -15 -64 -49 -64 -90c0 -47 57 -77 134 -77c96 0 154 36 154 108c0 37 -23 57 -94 58z" />
    <glyph glyph-name="h" unicode="h" horiz-adv-x="533" 
d="M152 0h-84v700h84v-215c51 20 100 30 146 30c103 0 170 -51 170 -171v-344h-83v328c0 76 -35 114 -104 114c-50 0 -93 -10 -129 -30v-412z" />
    <glyph glyph-name="i" unicode="i" horiz-adv-x="193" 
d="M55 502h83v-502h-83v502zM138 601h-83v104h83v-104z" />
    <glyph glyph-name="j" unicode="j" horiz-adv-x="213" 
d="M70 502h83v-568c0 -93 -47 -140 -141 -140c-27 0 -55 6 -85 18l12 64c25 -7 49 -10 72 -10c39 0 59 21 59 64v572zM153 601h-83v104h83v-104z" />
    <glyph glyph-name="k" unicode="k" horiz-adv-x="510" 
d="M68 688l84 14v-386h64l144 186h104l-177 -219l213 -283h-105l-180 245h-63v-245h-84v688z" />
    <glyph glyph-name="l" unicode="l" horiz-adv-x="275" 
d="M69 100v600h86v-594c0 -33 15 -49 45 -49c17 0 37 4 60 11l10 -64c-34 -12 -64 -18 -91 -18c-73 0 -110 38 -110 114z" />
    <glyph glyph-name="m" unicode="m" horiz-adv-x="837" 
d="M68 0v462c80 35 155 53 224 53c60 0 104 -15 131 -44c57 29 115 44 174 44c112 0 175 -41 175 -168v-347h-83v332c0 88 -35 111 -110 111c-42 0 -82 -9 -121 -28c5 -17 8 -39 8 -68v-347h-83v332c0 88 -35 111 -110 111c-47 0 -87 -9 -121 -28v-415h-84z" />
    <glyph glyph-name="n" unicode="n" horiz-adv-x="542" 
d="M68 0v462c79 35 156 53 231 53c116 0 178 -39 178 -171v-344h-83v329c0 89 -37 115 -104 115c-49 0 -95 -9 -138 -27v-417h-84z" />
    <glyph glyph-name="o" unicode="o" horiz-adv-x="542" 
d="M269 -14c-155 0 -223 73 -223 264c0 187 81 264 228 264s222 -75 222 -263c0 -177 -76 -265 -227 -265zM272 446c-42 0 -76 -14 -101 -43s-37 -80 -37 -153c0 -141 45 -196 137 -196c83 0 137 59 137 196c0 75 -11 127 -34 154c-23 28 -57 42 -102 42z" />
    <glyph glyph-name="p" unicode="p" horiz-adv-x="543" 
d="M151 424v-350c30 -14 66 -21 109 -21c107 0 150 83 150 206c0 136 -51 185 -138 185c-40 0 -80 -7 -121 -20zM498 260c0 -83 -19 -150 -56 -202c-37 -51 -98 -77 -184 -77c-31 0 -66 6 -107 19v-219h-83v691c78 26 150 39 215 39c133 0 215 -68 215 -251z" />
    <glyph glyph-name="q" unicode="q" horiz-adv-x="543" 
d="M46 249c3 171 82 266 243 266c66 0 129 -14 188 -42v-692l-84 8v216c-33 -15 -68 -23 -107 -23c-186 1 -239 132 -240 267zM134 247c0 -55 12 -101 35 -138c24 -37 62 -55 115 -55c43 0 78 7 107 21v353c-30 11 -64 17 -103 17c-107 0 -153 -79 -154 -198z" />
    <glyph glyph-name="r" unicode="r" horiz-adv-x="337" 
d="M327 503l-11 -75c-17 4 -35 6 -54 6c-51 0 -87 -10 -110 -30v-404h-84v502h73l7 -48c33 36 77 54 133 54c15 0 31 -2 46 -5z" />
    <glyph glyph-name="s" unicode="s" horiz-adv-x="417" 
d="M37 24l23 66c44 -18 88 -27 132 -27c65 0 103 31 103 70c0 43 -39 70 -87 86c-69 23 -160 51 -159 148c0 91 70 149 179 149c51 0 96 -9 133 -27l-17 -63c-34 11 -70 17 -109 17c-68 0 -102 -23 -102 -69c0 -41 39 -67 87 -83c70 -23 160 -50 160 -146
c0 -88 -67 -158 -191 -158c-57 0 -123 17 -152 37z" />
    <glyph glyph-name="t" unicode="t" horiz-adv-x="350" 
d="M310 73l13 -63c-37 -13 -71 -20 -102 -20c-54 0 -90 10 -109 30c-18 21 -27 57 -27 109v306h-68v67h68v138h85v-138h166l-13 -67h-154v-316c0 -21 0 -30 7 -43s23 -19 48 -19c27 0 55 5 86 16z" />
    <glyph glyph-name="u" unicode="u" 
d="M384 502h84v-479c-69 -25 -140 -37 -212 -37c-128 0 -192 60 -192 180v336h84v-331c0 -87 46 -116 134 -116c33 0 67 6 102 17v430z" />
    <glyph glyph-name="v" unicode="v" horiz-adv-x="482" 
d="M241 89l132 413h90l-172 -502h-101l-171 502h94z" />
    <glyph glyph-name="w" unicode="w" horiz-adv-x="689" 
d="M442 0l-98 384l-97 -384h-92l-131 502h90l90 -401l99 401h82l100 -401l90 401h90l-131 -502h-92z" />
    <glyph glyph-name="x" unicode="x" horiz-adv-x="515" 
d="M386 502h96l-175 -234l191 -268h-97l-142 204l-142 -204h-101l198 269l-174 233h99l123 -172z" />
    <glyph glyph-name="y" unicode="y" horiz-adv-x="452" 
d="M199 -5h-24l-175 507h89l139 -423l126 422h89l-152 -468c-48 -169 -114 -237 -218 -237c-23 0 -46 5 -69 14l10 58c16 -4 34 -6 54 -6c34 0 63 13 86 40s38 58 45 93z" />
    <glyph glyph-name="z" unicode="z" horiz-adv-x="458" 
d="M133 70h293v-70h-385l-10 59l274 374h-244l-12 69h349l8 -62z" />
    <glyph glyph-name="braceleft" unicode="{" horiz-adv-x="376" 
d="M31 280v66h27c29 3 43 34 43 93l7 162c3 49 20 88 51 118c31 31 68 46 111 46h77v-70h-86c-25 -3 -43 -15 -56 -36c-12 -21 -18 -41 -18 -60l-3 -137c-1 -77 -16 -127 -43 -150c27 -17 42 -70 43 -160l3 -130c0 -19 6 -39 18 -60c13 -21 31 -33 56 -35h79v-67h-70
c-93 0 -158 64 -162 159l-7 159c0 67 -9 101 -41 102h-29z" />
    <glyph glyph-name="bar" unicode="|" horiz-adv-x="231" 
d="M157 -44h-83v746h83v-746z" />
    <glyph glyph-name="braceright" unicode="}" horiz-adv-x="375" 
d="M317 346h27v-66h-29c-32 -1 -41 -35 -41 -102l-7 -159c-4 -95 -69 -159 -162 -159h-70v67h79c25 2 43 14 55 35c13 21 19 41 19 60l3 130c1 90 16 143 43 160c-27 23 -42 73 -43 150l-3 137c0 19 -6 39 -19 60c-12 21 -30 33 -55 36h-86v70h77c43 0 80 -15 111 -46
c31 -30 48 -69 51 -118l7 -162c0 -59 14 -90 43 -93z" />
    <glyph glyph-name="asciitilde" unicode="~" horiz-adv-x="582" 
d="M409 294c20 0 43 19 69 57l56 -45c-38 -65 -82 -97 -133 -97c-31 0 -72 12 -121 35c-44 21 -79 32 -105 32c-20 0 -43 -19 -69 -57l-56 45c38 65 82 97 132 97c35 0 77 -12 128 -36c47 -21 80 -31 99 -31z" />
    <glyph glyph-name="uni007F" horiz-adv-x="0" 
 />
    <glyph glyph-name="uni00A0" unicode="&#xa0;" horiz-adv-x="210" 
 />
    <glyph glyph-name="exclamdown" unicode="&#xa1;" horiz-adv-x="220" 
d="M160 -179h-99l11 516h76zM166 409h-110v110h110v-110z" />
    <glyph glyph-name="cent" unicode="&#xa2;" horiz-adv-x="471" 
d="M431 561l-33 -59c-39 21 -77 32 -114 32c-95 0 -165 -60 -165 -196s70 -194 165 -194c45 0 88 10 129 31l22 -63c-41 -20 -81 -32 -120 -37l5 -98h-82l4 100c-125 19 -208 106 -208 261c0 156 83 243 208 262l-4 100h82l-4 -98c42 -6 80 -20 115 -41z" />
    <glyph glyph-name="sterling" unicode="&#xa3;" horiz-adv-x="526" 
d="M136 320h-97v65h72c-13 41 -20 78 -20 110c0 120 80 187 212 187c47 0 102 -8 165 -25l-22 -65c-53 14 -99 21 -138 21c-81 0 -128 -44 -128 -112c0 -29 8 -67 25 -116h143l6 -65h-126c9 -31 13 -61 13 -90c0 -53 -17 -105 -51 -156h303v-74h-424v70c55 28 85 95 85 164
c0 34 -6 63 -18 86z" />
    <glyph glyph-name="currency" unicode="&#xa4;" horiz-adv-x="529" 
d="M172 81l-78 -99l-53 41l78 99c-31 35 -46 77 -46 128s17 95 51 133l-75 94l53 41l74 -95c30 14 61 21 94 21c29 0 56 -6 83 -19l73 93l52 -41l-69 -89c35 -35 57 -90 57 -138c0 -51 -18 -96 -54 -134l73 -93l-53 -41l-72 96c-25 -14 -55 -21 -90 -21c-37 0 -69 8 -98 24z
M270 126c71 0 122 53 122 124s-51 126 -122 126s-123 -55 -123 -126s51 -124 123 -124z" />
    <glyph glyph-name="yen" unicode="&#xa5;" horiz-adv-x="595" 
d="M224 311l-208 357h100l176 -306l176 306h93l-206 -357h158v-64h-178v-58h178v-64h-178v-125h-90v125h-163v64h163v58h-163v64h142z" />
    <glyph glyph-name="brokenbar" unicode="&#xa6;" horiz-adv-x="235" 
d="M160 410h-85v284h85v-284zM160 -45h-85v288h85v-288z" />
    <glyph glyph-name="section" unicode="&#xa7;" horiz-adv-x="367" 
d="M213 489c12 -29 36 -69 72 -122c37 -53 61 -93 74 -120v1c21 -51 20 -99 -4 -145c-15 -27 -40 -50 -73 -69c2 -3 5 -10 9 -21v1c20 -46 19 -94 -4 -143c-19 -39 -55 -67 -107 -86c-17 -7 -32 -11 -45 -13l-17 69l33 10c64 21 87 74 62 127c-13 31 -38 72 -73 123
c-35 52 -59 91 -72 118c-20 52 -19 100 4 144c14 27 38 50 73 69l-9 21c-8 24 -12 46 -12 66c0 79 41 134 123 163c14 5 29 10 45 13l17 -70l-33 -10c-48 -17 -72 -46 -72 -85c0 -12 3 -26 9 -41zM144 257c11 -27 31 -61 46 -84c7 -11 17 -25 30 -43c13 -17 22 -30 28 -39
c44 23 55 76 35 119c-12 29 -47 84 -104 165c-43 -24 -54 -77 -35 -118z" />
    <glyph glyph-name="dieresis" unicode="&#xa8;" horiz-adv-x="325" 
d="M113 601h-83v104h83v-104zM293 601h-83v104h83v-104z" />
    <glyph glyph-name="copyright" unicode="&#xa9;" horiz-adv-x="732" 
d="M593 529c62 -62 93 -138 93 -227s-31 -165 -93 -227s-138 -93 -227 -93s-165 31 -227 93s-93 138 -93 227s31 165 93 227s138 93 227 93s165 -31 227 -93zM541 118c47 49 70 111 70 184s-23 134 -70 181c-46 48 -104 72 -175 72s-129 -24 -176 -73
c-47 -48 -70 -109 -70 -182s23 -134 70 -183c47 -48 105 -72 176 -72s129 24 175 73zM484 476l-15 -61c-31 11 -62 16 -94 16c-56 0 -98 -41 -98 -133c0 -93 43 -134 104 -134c31 0 64 7 97 21l12 -61c-45 -16 -82 -24 -111 -24c-109 0 -186 65 -186 198c0 65 17 115 52 148
c35 34 78 51 128 51c33 0 70 -7 111 -21z" />
    <glyph glyph-name="ordfeminine" unicode="&#xaa;" horiz-adv-x="337" 
d="M294 588v-181c-37 -16 -80 -24 -129 -24c-79 0 -119 30 -119 91s47 91 112 91c19 0 39 -3 60 -8v30c0 35 -18 52 -53 52c-31 0 -60 -4 -87 -13l-13 54c37 15 75 22 115 22c83 0 114 -34 114 -114zM218 439v76c-13 3 -25 4 -35 4c-40 0 -60 -15 -60 -44
c0 -28 18 -42 55 -42c16 0 29 2 40 6z" />
    <glyph glyph-name="guillemotleft" unicode="&#xab;" horiz-adv-x="533" 
d="M428 512l58 -50l-148 -154l148 -153l-58 -51l-171 180v48zM218 512l58 -50l-149 -154l149 -153l-58 -51l-171 180v48z" />
    <glyph glyph-name="logicalnot" unicode="&#xac;" horiz-adv-x="509" 
d="M55 353v79h388v-196h-79v117h-309z" />
    <glyph glyph-name="uni00AD" unicode="&#xad;" horiz-adv-x="429" 
d="M63 318h303v-79h-303v79z" />
    <glyph glyph-name="registered" unicode="&#xae;" horiz-adv-x="732" 
d="M522 117h-73l-101 141h-4c-18 0 -32 1 -41 3v-144h-62v369c44 5 78 8 101 8c44 0 74 -4 106 -19s49 -47 49 -95c0 -59 -28 -96 -85 -113zM303 445v-137c12 -2 26 -3 43 -3c59 0 88 24 88 73c0 55 -35 69 -92 69c-18 0 -31 -1 -39 -2zM593 529c62 -62 93 -138 93 -227
s-31 -165 -93 -227s-138 -93 -227 -93s-165 31 -227 93s-93 138 -93 227s31 165 93 227s138 93 227 93s165 -31 227 -93zM541 118c47 49 70 111 70 184s-23 134 -70 181c-46 48 -104 72 -175 72s-129 -24 -176 -73c-47 -48 -70 -109 -70 -182s23 -134 70 -183
c47 -48 105 -72 176 -72s129 24 175 73z" />
    <glyph glyph-name="overscore" unicode="&#xaf;" horiz-adv-x="577" 
d="M63 670h451v-79h-451v79z" />
    <glyph glyph-name="degree" unicode="&#xb0;" horiz-adv-x="328" 
d="M285 633c0 -68 -44 -123 -123 -123s-119 52 -119 119c0 68 43 122 122 122s120 -51 120 -118zM219 633c0 31 -17 57 -54 57c-39 0 -56 -26 -56 -61c0 -32 14 -59 53 -59c40 0 57 30 57 63z" />
    <glyph glyph-name="plusminus" unicode="&#xb1;" horiz-adv-x="496" 
d="M288 295v-153h-80v153h-152v81h152v150h80v-150h152v-81h-152zM56 80h384v-80h-384v80z" />
    <glyph glyph-name="twosuperior" unicode="&#xb2;" horiz-adv-x="384" 
d="M150 328h189v-60h-303v51c11 9 31 26 61 49c30 24 54 44 71 59c18 15 35 35 51 60c52 78 16 142 -45 136c-22 0 -55 -9 -100 -26l-25 51c40 23 84 34 133 34c91 0 137 -41 137 -123c0 -69 -56 -146 -169 -231z" />
    <glyph glyph-name="threesuperior" unicode="&#xb3;" horiz-adv-x="345" 
d="M135 461h-47v44c89 1 124 25 124 73c0 33 -20 49 -61 49c-26 0 -57 -7 -93 -22l-21 54c42 16 81 24 118 24c77 0 132 -30 132 -103c0 -43 -18 -72 -55 -89c49 -18 74 -51 74 -98c0 -92 -65 -134 -157 -134c-37 0 -77 8 -120 23l19 60c35 -16 67 -24 97 -24
c49 0 84 23 84 74c0 41 -34 69 -94 69z" />
    <glyph glyph-name="acute" unicode="&#xb4;" horiz-adv-x="356" 
d="M231 754l48 -73l-172 -104l-36 55z" />
    <glyph glyph-name="mu" unicode="&#xb5;" horiz-adv-x="494" 
d="M151 19v-230h-82v713h84v-331c0 -87 46 -116 134 -116c33 0 67 6 102 17v430h84v-479c-69 -25 -140 -37 -212 -37c-37 0 -74 11 -110 33z" />
    <glyph glyph-name="paragraph" unicode="&#xb6;" horiz-adv-x="508" 
d="M479 668v-64h-72v-766h-74v766h-74v-766h-78v513c-44 0 -82 15 -113 46s-46 69 -46 113s15 81 46 112s69 46 113 46h298z" />
    <glyph glyph-name="middot" unicode="&#xb7;" horiz-adv-x="254" 
d="M126 333c40 0 72 -32 72 -69c0 -40 -32 -74 -72 -74c-37 0 -70 34 -70 74c0 37 33 69 70 69z" />
    <glyph glyph-name="cedilla" unicode="&#xb8;" horiz-adv-x="284" 
d="M127 -49h79c11 -23 16 -44 16 -64c0 -53 -35 -100 -106 -142l-41 48c47 33 70 66 70 99c0 17 -6 36 -18 59z" />
    <glyph glyph-name="onesuperior" unicode="&#xb9;" horiz-adv-x="254" 
d="M195 668v-412h-74v339l-94 -32l-19 53l134 52h53z" />
    <glyph glyph-name="ordmasculine" unicode="&#xba;" horiz-adv-x="383" 
d="M190 386c-101 0 -142 43 -142 159c0 113 50 160 145 160s142 -44 142 -159c0 -113 -50 -160 -145 -160zM191 650c-45 0 -72 -25 -72 -105c0 -76 23 -103 72 -103c48 0 72 34 72 103c0 81 -23 105 -72 105z" />
    <glyph glyph-name="guillemotright" unicode="&#xbb;" horiz-adv-x="531" 
d="M46 155l148 153l-148 154l58 50l171 -180v-48l-171 -180zM256 155l149 153l-149 154l58 50l171 -180v-48l-171 -180z" />
    <glyph glyph-name="onequarter" unicode="&#xbc;" horiz-adv-x="812" 
d="M599 726l56 -32l-423 -678l-59 34zM126 475h-47v44c89 1 124 25 124 73c0 33 -20 49 -61 49c-26 0 -57 -7 -93 -22l-21 54c42 16 81 24 118 24c77 0 132 -30 132 -103c0 -43 -18 -72 -55 -89c49 -18 74 -51 74 -98c0 -92 -65 -134 -157 -134c-37 0 -77 8 -120 23l19 60
c35 -16 67 -24 97 -24c49 0 84 23 84 74c0 41 -34 69 -94 69zM785 165v-58h-78v-107h-75v107h-191v42l197 260h69v-244h78zM527 165h105v138z" />
    <glyph glyph-name="onehalf" unicode="&#xbd;" horiz-adv-x="792" 
d="M207 698v-412h-74v339l-94 -32l-19 53l134 52h53zM758 165v-58h-78v-107h-76v107h-190v42l197 260h69v-244h78zM500 165h104v138zM567 726l56 -32l-423 -678l-59 34z" />
    <glyph glyph-name="threequarters" unicode="&#xbe;" horiz-adv-x="814" 
d="M213 698v-412h-74v339l-94 -32l-19 53l134 52h53zM602 60h189v-60h-303v51c11 9 31 26 61 49c30 24 54 44 71 59c18 15 35 35 51 60c52 78 16 142 -45 136c-22 0 -55 -9 -100 -26l-25 51c40 23 84 34 133 34c91 0 137 -41 137 -123c0 -69 -56 -146 -169 -231zM573 726
l56 -32l-423 -678l-59 34z" />
    <glyph glyph-name="questiondown" unicode="&#xbf;" horiz-adv-x="334" 
d="M122 9c-9 -71 60 -111 177 -122l-18 -77c-76 3 -138 23 -185 58s-68 82 -62 139c11 130 153 135 164 269l2 59h77c2 -37 3 -61 2 -72c-11 -136 -146 -171 -157 -254zM295 413h-110v110h110v-110z" />
    <glyph glyph-name="Agrave" unicode="&#xc0;" horiz-adv-x="605" 
d="M443 175h-281l-62 -175h-92l243 668h103l243 -668h-92zM417 248l-115 329l-115 -329h230zM390 776l-36 -55l-172 104l48 73z" />
    <glyph glyph-name="Aacute" unicode="&#xc1;" horiz-adv-x="605" 
d="M443 175h-281l-62 -175h-92l243 668h103l243 -668h-92zM417 248l-115 329l-115 -329h230zM360 902l48 -73l-172 -104l-36 55z" />
    <glyph glyph-name="Acircumflex" unicode="&#xc2;" horiz-adv-x="605" 
d="M443 175h-281l-62 -175h-92l243 668h103l243 -668h-92zM417 248l-115 329l-115 -329h230zM384 714l-80 86l-85 -86l-48 36l99 110h65l100 -110z" />
    <glyph glyph-name="Atilde" unicode="&#xc3;" horiz-adv-x="605" 
d="M443 175h-281l-62 -175h-92l243 668h103l243 -668h-92zM417 248l-115 329l-115 -329h230zM179 736l-44 37c25 40 62 71 97 71c15 0 37 -7 68 -22c31 -14 54 -21 67 -21s31 14 56 42l43 -36c-27 -45 -71 -77 -107 -77c-15 0 -38 7 -67 21c-29 15 -50 22 -63 22
s-29 -12 -50 -37z" />
    <glyph glyph-name="Adieresis" unicode="&#xc4;" horiz-adv-x="605" 
d="M443 175h-281l-62 -175h-92l243 668h103l243 -668h-92zM417 248l-115 329l-115 -329h230zM254 736h-83v104h83v-104zM434 736h-83v104h83v-104z" />
    <glyph glyph-name="Aring" unicode="&#xc5;" horiz-adv-x="605" 
d="M443 175h-281l-62 -175h-92l243 668h103l243 -668h-92zM417 248l-115 329l-115 -329h230zM381 883c18 -19 27 -43 27 -72s-9 -53 -27 -74c-18 -20 -44 -30 -77 -30s-59 10 -76 30s-26 44 -26 73s9 53 26 72c18 20 44 30 77 30s59 -10 76 -29zM349 811c0 25 -13 47 -44 47
c-58 0 -59 -97 -1 -97c31 0 45 23 45 50z" />
    <glyph glyph-name="AE" unicode="&#xc6;" horiz-adv-x="840" 
d="M5 0l343 668h434v-74h-305v-213h289v-74h-289v-233h316v-74h-403v208h-188l-104 -208h-93zM390 281v295l-152 -295h152z" />
    <glyph glyph-name="Ccedilla" unicode="&#xc7;" horiz-adv-x="556" 
d="M146 339c0 -104 17 -177 52 -218s88 -62 157 -62c37 0 87 5 149 16l9 -70c-53 -13 -108 -19 -167 -19c-103 0 -177 32 -224 95c-47 64 -70 150 -70 257c0 272 145 344 291 344c63 0 121 -9 174 -26l-15 -68c-51 15 -103 22 -156 22c-63 0 -112 -21 -147 -62
s-53 -110 -53 -209zM307 -49h79c11 -23 16 -44 16 -64c0 -53 -35 -100 -106 -142l-41 48c47 33 70 66 70 99c0 17 -6 36 -18 59z" />
    <glyph glyph-name="Egrave" unicode="&#xc8;" 
d="M167 74h316v-74h-404v668h393v-74h-305v-213h289v-74h-289v-233zM356 776l-36 -55l-172 104l48 73z" />
    <glyph glyph-name="Eacute" unicode="&#xc9;" 
d="M167 74h316v-74h-404v668h393v-74h-305v-213h289v-74h-289v-233zM343 902l48 -73l-172 -104l-36 55z" />
    <glyph glyph-name="Ecircumflex" unicode="&#xca;" 
d="M365 720l-80 86l-85 -86l-48 36l99 110h65l100 -110zM167 74h316v-74h-404v668h393v-74h-305v-213h289v-74h-289v-233z" />
    <glyph glyph-name="Edieresis" unicode="&#xcb;" 
d="M228 736h-83v104h83v-104zM408 736h-83v104h83v-104zM167 74h316v-74h-404v668h393v-74h-305v-213h289v-74h-289v-233z" />
    <glyph glyph-name="Igrave" unicode="&#xcc;" horiz-adv-x="254" 
d="M102 668h88v-668h-88v668zM201 776l-36 -55l-172 104l48 73z" />
    <glyph glyph-name="Iacute" unicode="&#xcd;" horiz-adv-x="254" 
d="M58 668h88v-668h-88v668zM207 902l48 -73l-172 -104l-36 55z" />
    <glyph glyph-name="Icircumflex" unicode="&#xce;" horiz-adv-x="254" 
d="M197 720l-80 86l-85 -86l-48 36l99 110h65l100 -110zM69 668h88v-668h-88v668z" />
    <glyph glyph-name="Idieresis" unicode="&#xcf;" horiz-adv-x="254" 
d="M51 668h88v-668h-88v668zM47 736h-83v104h83v-104zM227 736h-83v104h83v-104z" />
    <glyph glyph-name="Eth" unicode="&#xd0;" horiz-adv-x="638" 
d="M70 6v299h-65v78h65v279c73 9 134 13 185 13c108 0 182 -19 241 -70c60 -51 90 -141 90 -272c-1 -273 -154 -344 -337 -344c-41 0 -101 6 -179 17zM159 599v-216h173v-78h-173v-232c32 -6 63 -9 93 -9c147 0 239 82 239 270c0 185 -75 271 -234 271c-30 0 -63 -2 -98 -6z
" />
    <glyph glyph-name="Ntilde" unicode="&#xd1;" horiz-adv-x="695" 
d="M521 137v531h89v-668h-98l-351 531v-531h-88v668h98zM219 736l-44 37c25 40 62 71 97 71c15 0 37 -7 68 -22c31 -14 54 -21 67 -21s31 14 56 42l43 -36c-27 -45 -71 -77 -107 -77c-15 0 -38 7 -67 21c-29 15 -50 22 -63 22s-29 -12 -50 -37z" />
    <glyph glyph-name="Ograve" unicode="&#xd2;" horiz-adv-x="658" 
d="M330 682c88 0 155 -27 195 -68c62 -67 83 -166 82 -280c0 -79 -7 -141 -34 -202c-36 -87 -110 -146 -246 -146c-91 0 -159 28 -199 68c-20 20 -36 46 -48 77c-23 63 -29 122 -29 203c0 100 15 175 55 242c40 68 116 106 224 106zM329 55c154 0 188 122 188 279
c0 85 -9 146 -36 199s-77 82 -152 82s-125 -29 -153 -82c-27 -53 -36 -114 -36 -199c0 -84 9 -145 36 -198c27 -52 78 -81 153 -81zM400 776l-36 -55l-172 104l48 73z" />
    <glyph glyph-name="Oacute" unicode="&#xd3;" horiz-adv-x="658" 
d="M330 682c88 0 155 -27 195 -68c62 -67 83 -166 82 -280c0 -79 -7 -141 -34 -202c-36 -87 -110 -146 -246 -146c-91 0 -159 28 -199 68c-20 20 -36 46 -48 77c-23 63 -29 122 -29 203c0 100 15 175 55 242c40 68 116 106 224 106zM329 55c154 0 188 122 188 279
c0 85 -9 146 -36 199s-77 82 -152 82s-125 -29 -153 -82c-27 -53 -36 -114 -36 -199c0 -84 9 -145 36 -198c27 -52 78 -81 153 -81zM385 902l48 -73l-172 -104l-36 55z" />
    <glyph glyph-name="Ocircumflex" unicode="&#xd4;" horiz-adv-x="658" 
d="M330 682c88 0 155 -27 195 -68c62 -67 83 -166 82 -280c0 -79 -7 -141 -34 -202c-36 -87 -110 -146 -246 -146c-91 0 -159 28 -199 68c-20 20 -36 46 -48 77c-23 63 -29 122 -29 203c0 100 15 175 55 242c40 68 116 106 224 106zM329 55c154 0 188 122 188 279
c0 85 -9 146 -36 199s-77 82 -152 82s-125 -29 -153 -82c-27 -53 -36 -114 -36 -199c0 -84 9 -145 36 -198c27 -52 78 -81 153 -81zM412 722l-80 86l-85 -86l-48 36l99 110h65l100 -110z" />
    <glyph glyph-name="Otilde" unicode="&#xd5;" horiz-adv-x="658" 
d="M330 682c88 0 155 -27 195 -68c62 -67 83 -166 82 -280c0 -79 -7 -141 -34 -202c-36 -87 -110 -146 -246 -146c-91 0 -159 28 -199 68c-20 20 -36 46 -48 77c-23 63 -29 122 -29 203c0 100 15 175 55 242c40 68 116 106 224 106zM329 55c154 0 188 122 188 279
c0 85 -9 146 -36 199s-77 82 -152 82s-125 -29 -153 -82c-27 -53 -36 -114 -36 -199c0 -84 9 -145 36 -198c27 -52 78 -81 153 -81zM202 736l-44 37c25 40 62 71 97 71c15 0 37 -7 68 -22c31 -14 54 -21 67 -21s31 14 56 42l43 -36c-27 -45 -71 -77 -107 -77
c-15 0 -38 7 -67 21c-29 15 -50 22 -63 22s-29 -12 -50 -37z" />
    <glyph glyph-name="Odieresis" unicode="&#xd6;" horiz-adv-x="658" 
d="M330 682c88 0 155 -27 195 -68c62 -67 83 -166 82 -280c0 -79 -7 -141 -34 -202c-36 -87 -110 -146 -246 -146c-91 0 -159 28 -199 68c-20 20 -36 46 -48 77c-23 63 -29 122 -29 203c0 100 15 175 55 242c40 68 116 106 224 106zM329 55c154 0 188 122 188 279
c0 85 -9 146 -36 199s-77 82 -152 82s-125 -29 -153 -82c-27 -53 -36 -114 -36 -199c0 -84 9 -145 36 -198c27 -52 78 -81 153 -81zM278 734h-83v104h83v-104zM458 734h-83v104h83v-104z" />
    <glyph glyph-name="multiply" unicode="&#xd7;" horiz-adv-x="510" 
d="M313 303l150 -150l-56 -56l-151 149l-151 -151l-57 56l150 150l-149 148l57 57l148 -148l149 148l59 -54z" />
    <glyph glyph-name="Oslash" unicode="&#xd8;" horiz-adv-x="658" 
d="M329 682c45 0 85 -7 122 -21l45 85l71 -32l-50 -95c59 -55 89 -150 89 -285c0 -79 -7 -141 -34 -202c-36 -87 -110 -146 -246 -146c-49 0 -93 8 -131 23l-51 -98l-70 33l56 107c-53 53 -80 147 -80 283c0 100 15 175 55 242c40 68 116 106 224 106zM328 55
c154 0 188 122 188 279c0 94 -13 163 -40 207l-245 -464c27 -15 60 -22 97 -22zM139 334c0 -87 12 -153 36 -198l242 460c-25 13 -55 19 -89 19c-75 0 -125 -29 -153 -82c-27 -53 -36 -114 -36 -199z" />
    <glyph glyph-name="Ugrave" unicode="&#xd9;" horiz-adv-x="643" 
d="M568 668v-425c0 -176 -72 -256 -247 -257c-168 0 -246 81 -246 257v425h88v-410c0 -135 36 -197 160 -197c59 0 100 15 123 45c23 31 35 81 35 152v410h87zM415 776l-36 -55l-172 104l48 73z" />
    <glyph glyph-name="Uacute" unicode="&#xda;" horiz-adv-x="643" 
d="M568 668v-425c0 -176 -72 -256 -247 -257c-168 0 -246 81 -246 257v425h88v-410c0 -135 36 -197 160 -197c59 0 100 15 123 45c23 31 35 81 35 152v410h87zM390 901l48 -73l-172 -104l-36 55z" />
    <glyph glyph-name="Ucircumflex" unicode="&#xdb;" horiz-adv-x="643" 
d="M404 720l-80 86l-85 -86l-48 36l99 110h65l100 -110zM568 668v-425c0 -176 -72 -256 -247 -257c-168 0 -246 81 -246 257v425h88v-410c0 -135 36 -197 160 -197c59 0 100 15 123 45c23 31 35 81 35 152v410h87z" />
    <glyph glyph-name="Udieresis" unicode="&#xdc;" horiz-adv-x="643" 
d="M568 668v-425c0 -176 -72 -256 -247 -257c-168 0 -246 81 -246 257v425h88v-410c0 -135 36 -197 160 -197c59 0 100 15 123 45c23 31 35 81 35 152v410h87zM273 736h-83v104h83v-104zM453 736h-83v104h83v-104z" />
    <glyph glyph-name="Yacute" unicode="&#xdd;" horiz-adv-x="553" 
d="M232 275l-229 393h100l176 -306l176 306h93l-226 -393v-275h-90v275zM349 901l48 -73l-172 -104l-36 55z" />
    <glyph glyph-name="Thorn" unicode="&#xde;" horiz-adv-x="559" 
d="M464 542c42 -34 63 -82 63 -144c0 -72 -23 -125 -69 -158c-51 -37 -118 -51 -241 -51h-49v-189h-89v700h89v-104h79c111 0 166 -14 217 -54zM388 289c33 21 49 55 49 104c0 39 -13 70 -38 94c-27 23 -78 35 -151 35h-80v-259h62c79 0 131 9 158 26z" />
    <glyph glyph-name="germandbls" unicode="&#xdf;" horiz-adv-x="576" 
d="M250 381c0 100 113 116 113 190c0 52 -29 78 -88 78c-83 0 -120 -42 -120 -134v-637h-87v639c0 140 77 208 210 208c113 0 175 -64 175 -149c0 -47 -29 -88 -58 -111s-58 -52 -58 -77c0 -24 6 -40 23 -55c19 -13 23 -16 50 -29c43 -17 60 -26 91 -51
c32 -24 46 -58 46 -102c0 -92 -64 -149 -167 -149c-27 0 -57 4 -90 13s-56 20 -71 31l23 67c50 -25 98 -37 144 -37c49 0 74 23 74 70c0 14 -5 27 -15 38c-19 24 -34 30 -73 49c-21 10 -36 18 -46 24s-22 15 -37 27c-28 24 -39 54 -39 97z" />
    <glyph glyph-name="agrave" unicode="&#xe0;" horiz-adv-x="476" 
d="M426 333v-311c-64 -23 -133 -34 -206 -34c-52 0 -96 11 -132 33c-36 23 -54 59 -54 109c0 38 10 69 30 93c40 48 95 61 166 61c37 0 74 -5 111 -16v61c0 76 -22 110 -105 110c-36 0 -86 -8 -150 -25l-16 64c23 10 53 18 89 24s66 9 89 9c127 0 178 -54 178 -178zM341 66
v148c-28 9 -58 13 -89 13c-75 0 -132 -31 -132 -96c0 -53 40 -80 121 -80c35 0 69 5 100 15zM336 632l-36 -55l-172 104l48 73z" />
    <glyph glyph-name="aacute" unicode="&#xe1;" horiz-adv-x="476" 
d="M426 333v-311c-64 -23 -133 -34 -206 -34c-52 0 -96 11 -132 33c-36 23 -54 59 -54 109c0 38 10 69 30 93c40 48 95 61 166 61c37 0 74 -5 111 -16v61c0 76 -22 110 -105 110c-36 0 -86 -8 -150 -25l-16 64c23 10 53 18 89 24s66 9 89 9c127 0 178 -54 178 -178zM341 66
v148c-28 9 -58 13 -89 13c-75 0 -132 -31 -132 -96c0 -53 40 -80 121 -80c35 0 69 5 100 15zM301 754l48 -73l-172 -104l-36 55z" />
    <glyph glyph-name="acircumflex" unicode="&#xe2;" horiz-adv-x="476" 
d="M426 333v-311c-64 -23 -133 -34 -206 -34c-52 0 -96 11 -132 33c-36 23 -54 59 -54 109c0 38 10 69 30 93c40 48 95 61 166 61c37 0 74 -5 111 -16v61c0 76 -22 110 -105 110c-36 0 -86 -8 -150 -25l-16 64c23 10 53 18 89 24s66 9 89 9c127 0 178 -54 178 -178zM341 66
v148c-28 9 -58 13 -89 13c-75 0 -132 -31 -132 -96c0 -53 40 -80 121 -80c35 0 69 5 100 15zM324 581l-80 86l-85 -86l-48 36l99 110h65l100 -110z" />
    <glyph glyph-name="atilde" unicode="&#xe3;" horiz-adv-x="476" 
d="M426 333v-311c-64 -23 -133 -34 -206 -34c-52 0 -96 11 -132 33c-36 23 -54 59 -54 109c0 38 10 69 30 93c40 48 95 61 166 61c37 0 74 -5 111 -16v61c0 76 -22 110 -105 110c-36 0 -86 -8 -150 -25l-16 64c23 10 53 18 89 24s66 9 89 9c127 0 178 -54 178 -178zM341 66
v148c-28 9 -58 13 -89 13c-75 0 -132 -31 -132 -96c0 -53 40 -80 121 -80c35 0 69 5 100 15zM119 593l-44 37c25 40 62 71 97 71c15 0 37 -7 68 -22c31 -14 54 -21 67 -21s31 14 56 42l43 -36c-27 -45 -71 -77 -107 -77c-15 0 -38 7 -67 21c-29 15 -50 22 -63 22
s-29 -12 -50 -37z" />
    <glyph glyph-name="adieresis" unicode="&#xe4;" horiz-adv-x="476" 
d="M426 333v-311c-64 -23 -133 -34 -206 -34c-52 0 -96 11 -132 33c-36 23 -54 59 -54 109c0 38 10 69 30 93c40 48 95 61 166 61c37 0 74 -5 111 -16v61c0 76 -22 110 -105 110c-36 0 -86 -8 -150 -25l-16 64c23 10 53 18 89 24s66 9 89 9c127 0 178 -54 178 -178zM341 66
v148c-28 9 -58 13 -89 13c-75 0 -132 -31 -132 -96c0 -53 40 -80 121 -80c35 0 69 5 100 15zM189 601h-83v104h83v-104zM369 601h-83v104h83v-104z" />
    <glyph glyph-name="aring" unicode="&#xe5;" horiz-adv-x="476" 
d="M426 333v-311c-64 -23 -133 -34 -206 -34c-52 0 -96 11 -132 33c-36 23 -54 59 -54 109c0 38 10 69 30 93c40 48 95 61 166 61c37 0 74 -5 111 -16v61c0 76 -22 110 -105 110c-36 0 -86 -8 -150 -25l-16 64c23 10 53 18 89 24s66 9 89 9c127 0 178 -54 178 -178zM341 66
v148c-28 9 -58 13 -89 13c-75 0 -132 -31 -132 -96c0 -53 40 -80 121 -80c35 0 69 5 100 15zM321 763c18 -19 27 -43 27 -72s-9 -53 -27 -74c-18 -20 -44 -30 -77 -30s-59 10 -76 30s-26 44 -26 73s9 53 26 72c18 20 44 30 77 30s59 -10 76 -29zM289 691c0 25 -13 47 -44 47
c-58 0 -59 -97 -1 -97c31 0 45 23 45 50z" />
    <glyph glyph-name="ae" unicode="&#xe6;" horiz-adv-x="814" 
d="M237 -12c-56 0 -104 12 -143 35c-39 24 -59 62 -59 113c0 103 65 154 196 154c44 0 81 -3 111 -9v51c5 107 -69 133 -255 82l-16 65c25 9 55 16 91 22c37 7 66 10 87 10c73 0 130 -29 153 -72c31 43 92 74 163 74c137 0 204 -75 204 -195c0 -16 -2 -41 -7 -75h-332
c3 -125 50 -185 150 -185c54 0 105 13 153 39l15 -72c-58 -26 -115 -39 -171 -39c-69 0 -122 17 -160 51c-55 -33 -115 -49 -180 -49zM379 84c-21 33 -33 78 -37 133c-42 6 -74 9 -97 9c-82 0 -123 -29 -123 -87c0 -60 62 -84 135 -84c44 0 85 10 122 29zM432 313h250
c0 3 1 13 1 17c0 73 -44 117 -115 117c-51 0 -90 -23 -109 -56c-17 -32 -24 -54 -27 -78z" />
    <glyph glyph-name="ccedilla" unicode="&#xe7;" horiz-adv-x="464" 
d="M420 489l-17 -65c-36 12 -76 18 -120 18c-84 0 -148 -59 -148 -192c0 -135 65 -194 156 -194c41 0 83 8 125 24l13 -66c-53 -19 -100 -28 -141 -28c-71 0 -130 22 -176 65c-45 44 -68 110 -68 199c0 87 23 152 69 197c47 45 103 67 168 67c43 0 90 -8 139 -25zM235 -49
h79c11 -23 16 -44 16 -64c0 -53 -35 -100 -106 -142l-41 48c47 33 70 66 70 99c0 17 -6 36 -18 59z" />
    <glyph glyph-name="egrave" unicode="&#xe8;" horiz-adv-x="513" 
d="M283 -14c-159 0 -239 89 -239 266c0 73 19 134 57 185s94 76 167 76c135 0 203 -70 203 -190c0 -21 -3 -47 -8 -77h-330c0 -133 62 -189 182 -189c47 0 89 8 128 25l11 -69c-46 -18 -103 -27 -171 -27zM271 447c-105 0 -136 -101 -136 -135h249c1 4 1 10 1 18
c0 75 -43 117 -114 117zM360 632l-36 -55l-172 104l48 73z" />
    <glyph glyph-name="eacute" unicode="&#xe9;" horiz-adv-x="513" 
d="M283 -14c-159 0 -239 89 -239 266c0 73 19 134 57 185s94 76 167 76c135 0 203 -70 203 -190c0 -21 -3 -47 -8 -77h-330c0 -133 62 -189 182 -189c47 0 89 8 128 25l11 -69c-46 -18 -103 -27 -171 -27zM271 447c-105 0 -136 -101 -136 -135h249c1 4 1 10 1 18
c0 75 -43 117 -114 117zM330 754l48 -73l-172 -104l-36 55z" />
    <glyph glyph-name="ecircumflex" unicode="&#xea;" horiz-adv-x="513" 
d="M283 -14c-159 0 -239 89 -239 266c0 73 19 134 57 185s94 76 167 76c135 0 203 -70 203 -190c0 -21 -3 -47 -8 -77h-330c0 -133 62 -189 182 -189c47 0 89 8 128 25l11 -69c-46 -18 -103 -27 -171 -27zM271 447c-105 0 -136 -101 -136 -135h249c1 4 1 10 1 18
c0 75 -43 117 -114 117zM352 581l-80 86l-85 -86l-48 36l99 110h65l100 -110z" />
    <glyph glyph-name="edieresis" unicode="&#xeb;" horiz-adv-x="513" 
d="M283 -14c-159 0 -239 89 -239 266c0 73 19 134 57 185s94 76 167 76c135 0 203 -70 203 -190c0 -21 -3 -47 -8 -77h-330c0 -133 62 -189 182 -189c47 0 89 8 128 25l11 -69c-46 -18 -103 -27 -171 -27zM271 447c-105 0 -136 -101 -136 -135h249c1 4 1 10 1 18
c0 75 -43 117 -114 117zM222 601h-83v104h83v-104zM402 601h-83v104h83v-104z" />
    <glyph glyph-name="igrave" unicode="&#xec;" horiz-adv-x="195" 
d="M55 502h91v-502h-91v502zM160 632l-36 -55l-172 104l48 73z" />
    <glyph glyph-name="iacute" unicode="&#xed;" horiz-adv-x="219" 
d="M55 502h91v-502h-91v502zM199 754l48 -73l-172 -104l-36 55z" />
    <glyph glyph-name="icircumflex" unicode="&#xee;" horiz-adv-x="204" 
d="M185 581l-80 86l-85 -86l-48 36l99 110h65l100 -110zM55 502h91v-502h-91v502z" />
    <glyph glyph-name="idieresis" unicode="&#xef;" horiz-adv-x="231" 
d="M55 502h91v-502h-91v502zM54 601h-83v104h83v-104zM234 601h-83v104h83v-104z" />
    <glyph glyph-name="eth" unicode="&#xf0;" 
d="M46 225c0 151 68 250 196 250c49 0 94 -8 136 -25c-16 57 -50 102 -101 134l-87 -64l-49 51l63 49c-49 20 -96 32 -143 37l16 62c71 -2 139 -16 203 -41l76 60l47 -52l-61 -48c97 -72 145 -188 145 -349c0 -202 -73 -303 -219 -303c-71 0 -125 23 -164 69
c-39 47 -58 103 -58 170zM136 223c0 -96 46 -162 129 -162c27 0 50 6 68 19c36 25 63 100 63 228c0 31 0 52 -1 64c-42 20 -87 30 -135 30c-83 0 -124 -60 -124 -179z" />
    <glyph glyph-name="ntilde" unicode="&#xf1;" horiz-adv-x="542" 
d="M68 0v462c79 35 156 53 231 53c116 0 178 -39 178 -171v-344h-83v329c0 89 -37 115 -104 115c-49 0 -95 -9 -138 -27v-417h-84zM138 593l-44 37c25 40 62 71 97 71c15 0 37 -7 68 -22c31 -14 54 -21 67 -21s31 14 56 42l43 -36c-27 -45 -71 -77 -107 -77
c-15 0 -38 7 -67 21c-29 15 -50 22 -63 22s-29 -12 -50 -37z" />
    <glyph glyph-name="ograve" unicode="&#xf2;" horiz-adv-x="542" 
d="M269 -14c-155 0 -223 73 -223 264c0 187 81 264 228 264s222 -75 222 -263c0 -177 -76 -265 -227 -265zM272 446c-42 0 -76 -14 -101 -43s-37 -80 -37 -153c0 -141 45 -196 137 -196c83 0 137 59 137 196c0 75 -11 127 -34 154c-23 28 -57 42 -102 42zM350 632l-36 -55
l-172 104l48 73z" />
    <glyph glyph-name="oacute" unicode="&#xf3;" horiz-adv-x="542" 
d="M269 -14c-155 0 -223 73 -223 264c0 187 81 264 228 264s222 -75 222 -263c0 -177 -76 -265 -227 -265zM272 446c-42 0 -76 -14 -101 -43s-37 -80 -37 -153c0 -141 45 -196 137 -196c83 0 137 59 137 196c0 75 -11 127 -34 154c-23 28 -57 42 -102 42zM335 754l48 -73
l-172 -104l-36 55z" />
    <glyph glyph-name="ocircumflex" unicode="&#xf4;" horiz-adv-x="542" 
d="M358 581l-80 86l-85 -86l-48 36l99 110h65l100 -110zM269 -14c-155 0 -223 73 -223 264c0 187 81 264 228 264s222 -75 222 -263c0 -177 -76 -265 -227 -265zM272 446c-42 0 -76 -14 -101 -43s-37 -80 -37 -153c0 -141 45 -196 137 -196c83 0 137 59 137 196
c0 75 -11 127 -34 154c-23 28 -57 42 -102 42z" />
    <glyph glyph-name="otilde" unicode="&#xf5;" horiz-adv-x="542" 
d="M269 -14c-155 0 -223 73 -223 264c0 187 81 264 228 264s222 -75 222 -263c0 -177 -76 -265 -227 -265zM272 446c-42 0 -76 -14 -101 -43s-37 -80 -37 -153c0 -141 45 -196 137 -196c83 0 137 59 137 196c0 75 -11 127 -34 154c-23 28 -57 42 -102 42zM145 593l-44 37
c25 40 62 71 97 71c15 0 37 -7 68 -22c31 -14 54 -21 67 -21s31 14 56 42l43 -36c-27 -45 -71 -77 -107 -77c-15 0 -38 7 -67 21c-29 15 -50 22 -63 22s-29 -12 -50 -37z" />
    <glyph glyph-name="odieresis" unicode="&#xf6;" horiz-adv-x="542" 
d="M269 -14c-155 0 -223 73 -223 264c0 187 81 264 228 264s222 -75 222 -263c0 -177 -76 -265 -227 -265zM272 446c-42 0 -76 -14 -101 -43s-37 -80 -37 -153c0 -141 45 -196 137 -196c83 0 137 59 137 196c0 75 -11 127 -34 154c-23 28 -57 42 -102 42zM219 601h-83v104
h83v-104zM399 601h-83v104h83v-104z" />
    <glyph glyph-name="divide" unicode="&#xf7;" horiz-adv-x="502" 
d="M252 206c31 0 56 -24 56 -55c0 -32 -25 -59 -56 -59c-33 0 -59 27 -59 59c0 31 26 55 59 55zM454 318v-79h-406v79h406zM252 469c31 0 56 -24 56 -55c0 -32 -25 -59 -56 -59c-33 0 -59 27 -59 59c0 31 26 55 59 55z" />
    <glyph glyph-name="oslash" unicode="&#xf8;" horiz-adv-x="541" 
d="M267 -14c-33 0 -62 3 -87 10l-36 -71l-63 32l36 70c-49 40 -73 114 -73 223c0 187 81 264 228 264c35 0 65 -4 91 -13l34 65l63 -29l-36 -70c47 -43 70 -115 70 -216c0 -177 -76 -265 -227 -265zM270 446c-42 0 -76 -14 -101 -43s-37 -80 -37 -153c0 -63 9 -110 27 -141
l171 327c-17 7 -37 10 -60 10zM406 250c0 59 -8 105 -24 137l-167 -325c17 -5 35 -8 54 -8c83 0 137 59 137 196z" />
    <glyph glyph-name="ugrave" unicode="&#xf9;" 
d="M384 502h84v-479c-69 -25 -140 -37 -212 -37c-128 0 -192 60 -192 180v336h84v-331c0 -87 46 -116 134 -116c33 0 67 6 102 17v430zM358 632l-36 -55l-172 104l48 73z" />
    <glyph glyph-name="uacute" unicode="&#xfa;" 
d="M384 502h84v-479c-69 -25 -140 -37 -212 -37c-128 0 -192 60 -192 180v336h84v-331c0 -87 46 -116 134 -116c33 0 67 6 102 17v430zM346 754l48 -73l-172 -104l-36 55z" />
    <glyph glyph-name="ucircumflex" unicode="&#xfb;" 
d="M354 581l-80 86l-85 -86l-48 36l99 110h65l100 -110zM384 502h84v-479c-69 -25 -140 -37 -212 -37c-128 0 -192 60 -192 180v336h84v-331c0 -87 46 -116 134 -116c33 0 67 6 102 17v430z" />
    <glyph glyph-name="udieresis" unicode="&#xfc;" 
d="M384 502h84v-479c-69 -25 -140 -37 -212 -37c-128 0 -192 60 -192 180v336h84v-331c0 -87 46 -116 134 -116c33 0 67 6 102 17v430zM218 601h-83v104h83v-104zM398 601h-83v104h83v-104z" />
    <glyph glyph-name="yacute" unicode="&#xfd;" horiz-adv-x="452" 
d="M199 -5h-24l-175 507h89l139 -423l126 422h89l-152 -468c-48 -169 -114 -237 -218 -237c-23 0 -46 5 -69 14l10 58c16 -4 34 -6 54 -6c34 0 63 13 86 40s38 58 45 93zM296 754l48 -73l-172 -104l-36 55z" />
    <glyph glyph-name="thorn" unicode="&#xfe;" horiz-adv-x="543" 
d="M149 412v-337c28 -11 64 -17 109 -17c102 0 153 68 153 203c0 120 -46 180 -138 180c-37 0 -78 -10 -124 -29zM149 -215h-83v915h83v-213c49 18 94 27 135 27c131 0 214 -80 214 -252c0 -147 -57 -276 -242 -276c-38 0 -74 4 -107 13v-214z" />
    <glyph glyph-name="ydieresis" unicode="&#xff;" horiz-adv-x="452" 
d="M199 -5h-24l-175 507h89l139 -423l126 422h89l-152 -468c-48 -169 -114 -237 -218 -237c-23 0 -46 5 -69 14l10 58c16 -4 34 -6 54 -6c34 0 63 13 86 40s38 58 45 93zM179 601h-83v104h83v-104zM359 601h-83v104h83v-104z" />
    <glyph glyph-name="Abreve" unicode="&#x102;" horiz-adv-x="605" 
d="M443 175h-281l-62 -175h-92l243 668h103l243 -668h-92zM417 248l-115 329l-115 -329h230zM194 842h59c0 -33 16 -50 48 -50c33 0 50 17 50 50h59c0 -57 -38 -104 -109 -104c-72 0 -107 45 -107 104z" />
    <glyph glyph-name="abreve" unicode="&#x103;" horiz-adv-x="476" 
d="M426 333v-311c-64 -23 -133 -34 -206 -34c-52 0 -96 11 -132 33c-36 23 -54 59 -54 109c0 38 10 69 30 93c40 48 95 61 166 61c37 0 74 -5 111 -16v61c0 76 -22 110 -105 110c-36 0 -86 -8 -150 -25l-16 64c23 10 53 18 89 24s66 9 89 9c127 0 178 -54 178 -178zM341 66
v148c-28 9 -58 13 -89 13c-75 0 -132 -31 -132 -96c0 -53 40 -80 121 -80c35 0 69 5 100 15zM137 670h59c0 -33 16 -50 48 -50c33 0 50 17 50 50h59c0 -57 -38 -104 -109 -104c-72 0 -107 45 -107 104z" />
    <glyph glyph-name="Aogonek" unicode="&#x104;" horiz-adv-x="605" 
d="M443 175h-281l-62 -175h-92l243 668h103l243 -668h-2c-37 -12 -62 -50 -62 -86c0 -33 17 -52 44 -52c9 0 19 3 31 8l11 -59c-23 -13 -46 -20 -71 -20c-55 0 -96 35 -96 99c0 38 18 75 53 110zM417 248l-115 329l-115 -329h230z" />
    <glyph glyph-name="aogonek" unicode="&#x105;" horiz-adv-x="476" 
d="M426 333v-311l-11 -4c-44 -20 -78 -62 -78 -101c0 -35 17 -52 52 -52c13 0 26 3 41 8l13 -60c-25 -13 -52 -20 -81 -20c-61 0 -108 34 -108 98c0 39 17 73 52 104c-33 -5 -61 -7 -86 -7c-52 0 -96 11 -132 33c-36 23 -54 59 -54 109c0 38 10 69 30 93c40 48 95 61 166 61
c37 0 74 -5 111 -16v61c0 76 -22 110 -105 110c-36 0 -86 -8 -150 -25l-16 64c23 10 53 18 89 24s66 9 89 9c127 0 178 -54 178 -178zM341 66v148c-28 9 -58 13 -89 13c-75 0 -132 -31 -132 -96c0 -53 40 -80 121 -80c35 0 69 5 100 15z" />
    <glyph glyph-name="Cacute" unicode="&#x106;" horiz-adv-x="556" 
d="M146 339c0 -104 17 -177 52 -218s88 -62 157 -62c37 0 87 5 149 16l9 -70c-53 -13 -108 -19 -167 -19c-103 0 -177 32 -224 95c-47 64 -70 150 -70 257c0 272 145 344 291 344c63 0 121 -9 174 -26l-15 -68c-51 15 -103 22 -156 22c-63 0 -112 -21 -147 -62
s-53 -110 -53 -209zM404 926l48 -73l-172 -104l-36 55z" />
    <glyph glyph-name="cacute" unicode="&#x107;" horiz-adv-x="464" 
d="M420 489l-17 -65c-36 12 -76 18 -120 18c-84 0 -148 -59 -148 -192c0 -135 65 -194 156 -194c41 0 83 8 125 24l13 -66c-53 -19 -100 -28 -141 -28c-71 0 -130 22 -176 65c-45 44 -68 110 -68 199c0 87 23 152 69 197c47 45 103 67 168 67c43 0 90 -8 139 -25zM335 754
l48 -73l-172 -104l-36 55z" />
    <glyph glyph-name="Ccaron" unicode="&#x10c;" horiz-adv-x="556" 
d="M235 897l90 -93l91 93l46 -39l-103 -114h-66l-104 114zM146 339c0 -104 17 -177 52 -218s88 -62 157 -62c37 0 87 5 149 16l9 -70c-53 -13 -108 -19 -167 -19c-103 0 -177 32 -224 95c-47 64 -70 150 -70 257c0 272 145 344 291 344c63 0 121 -9 174 -26l-15 -68
c-51 15 -103 22 -156 22c-63 0 -112 -21 -147 -62s-53 -110 -53 -209z" />
    <glyph glyph-name="ccaron" unicode="&#x10d;" horiz-adv-x="464" 
d="M178 725l90 -93l91 93l46 -39l-103 -114h-66l-104 114zM420 489l-17 -65c-36 12 -76 18 -120 18c-84 0 -148 -59 -148 -192c0 -135 65 -194 156 -194c41 0 83 8 125 24l13 -66c-53 -19 -100 -28 -141 -28c-71 0 -130 22 -176 65c-45 44 -68 110 -68 199
c0 87 23 152 69 197c47 45 103 67 168 67c43 0 90 -8 139 -25z" />
    <glyph glyph-name="Dcaron" unicode="&#x10e;" horiz-adv-x="648" 
d="M181 896l90 -93l91 93l46 -39l-103 -114h-66l-104 114zM79 6v656c73 9 134 13 185 13c108 0 182 -19 241 -70c60 -51 90 -141 90 -272c-1 -273 -154 -344 -337 -344c-41 0 -101 6 -179 17zM168 599v-526c32 -6 63 -9 93 -9c147 0 239 82 239 270c0 185 -75 271 -234 271
c-31 0 -63 -2 -98 -6z" />
    <glyph glyph-name="dcaron" unicode="&#x10f;" horiz-adv-x="624" 
d="M397 67v361c-34 12 -68 18 -103 18c-105 0 -157 -71 -157 -212c0 -124 61 -181 164 -181c29 0 61 5 96 14zM46 233c0 86 18 154 55 205s96 76 179 76c45 0 84 -5 117 -16v214h83v-699c-87 -17 -153 -25 -197 -25c-69 0 -121 13 -166 48c-45 36 -71 102 -71 197zM678 664
c0 -60 -27 -113 -80 -159h-74c49 53 73 101 73 146c0 19 -5 40 -15 61h86c7 -15 10 -31 10 -48z" />
    <glyph glyph-name="Dcroat" unicode="&#x110;" horiz-adv-x="648" 
d="M79 6v302h-72v79h72v275c73 9 134 13 185 13c108 0 182 -19 241 -70c60 -51 90 -141 90 -272c-1 -273 -154 -344 -337 -344c-41 0 -101 6 -179 17zM168 599v-212h155v-79h-155v-235c32 -6 63 -9 93 -9c147 0 239 82 239 270c0 185 -75 271 -234 271c-31 0 -63 -2 -98 -6z
" />
    <glyph glyph-name="dslash" unicode="&#x111;" horiz-adv-x="547" 
d="M46 233c0 86 18 154 55 205s96 76 179 76c45 0 84 -5 117 -16v91h-107v64h107v59h83v-59h51v-64h-51v-576c-87 -17 -153 -25 -197 -25c-69 0 -121 13 -166 48c-45 36 -71 102 -71 197zM397 67v361c-34 12 -68 18 -103 18c-105 0 -157 -71 -157 -212
c0 -124 61 -181 164 -181c29 0 61 5 96 14z" />
    <glyph glyph-name="Eogonek" unicode="&#x118;" horiz-adv-x="580" 
d="M167 74h316v-74c-37 -12 -62 -50 -62 -86c0 -33 17 -52 44 -52c9 0 19 3 31 8l11 -59c-23 -13 -46 -20 -71 -20c-55 0 -96 35 -96 99c0 38 18 75 53 110h-314v668h393v-74h-305v-213h289v-74h-289v-233z" />
    <glyph glyph-name="eogonek" unicode="&#x119;" horiz-adv-x="513" 
d="M283 -14c-159 0 -239 89 -239 266c0 73 19 134 57 185s94 76 167 76c135 0 203 -70 203 -190c0 -21 -3 -47 -8 -77h-330c0 -133 62 -189 182 -189c47 0 89 8 128 25l11 -69c-18 -7 -33 -11 -45 -14c-33 -18 -50 -47 -50 -88c0 -35 20 -52 51 -52c11 0 25 3 42 9l12 -60
c-25 -13 -51 -20 -78 -20c-60 0 -106 35 -106 99c0 37 14 70 42 100c-8 -1 -21 -1 -39 -1zM271 447c-105 0 -136 -101 -136 -135h249c1 4 1 10 1 18c0 75 -43 117 -114 117z" />
    <glyph glyph-name="Ecaron" unicode="&#x11a;" 
d="M186 897l90 -93l91 93l46 -39l-103 -114h-66l-104 114zM167 74h316v-74h-404v668h393v-74h-305v-213h289v-74h-289v-233z" />
    <glyph glyph-name="ecaron" unicode="&#x11b;" horiz-adv-x="513" 
d="M283 -14c-159 0 -239 89 -239 266c0 73 19 134 57 185s94 76 167 76c135 0 203 -70 203 -190c0 -21 -3 -47 -8 -77h-330c0 -133 62 -189 182 -189c47 0 89 8 128 25l11 -69c-46 -18 -103 -27 -171 -27zM271 447c-105 0 -136 -101 -136 -135h249c1 4 1 10 1 18
c0 75 -43 117 -114 117zM181 725l90 -93l91 93l46 -39l-103 -114h-66l-104 114z" />
    <glyph glyph-name="dotlessi" unicode="&#x131;" horiz-adv-x="213" 
d="M55 502h91v-502h-91v502z" />
    <glyph glyph-name="Lacute" unicode="&#x139;" horiz-adv-x="470" 
d="M167 74h283v-74h-371v668h88v-594zM199 926l48 -73l-172 -104l-36 55z" />
    <glyph glyph-name="lacute" unicode="&#x13a;" horiz-adv-x="275" 
d="M69 100v570h86v-564c0 -33 18 -49 55 -49c16 0 33 3 50 8l10 -61c-34 -12 -66 -18 -95 -18c-79 0 -106 37 -106 114zM213 902l48 -73l-172 -104l-36 55z" />
    <glyph glyph-name="Lcaron" unicode="&#x13d;" horiz-adv-x="470" 
d="M167 74h283v-74h-371v668h88v-594zM398 620c0 -60 -27 -113 -80 -159h-74c49 53 73 101 73 146c0 19 -5 40 -15 61h86c7 -15 10 -31 10 -48z" />
    <glyph glyph-name="lcaron" unicode="&#x13e;" horiz-adv-x="358" 
d="M69 100v600h86v-594c0 -33 15 -49 45 -49c17 0 37 4 60 11l10 -64c-34 -12 -64 -18 -91 -18c-73 0 -110 38 -110 114zM373 652c0 -60 -27 -113 -80 -159h-74c49 53 73 101 73 146c0 19 -5 40 -15 61h86c7 -15 10 -31 10 -48z" />
    <glyph glyph-name="Lslash" unicode="&#x141;" horiz-adv-x="532" 
d="M229 74h283v-74h-371v254l-69 -32l-32 72l101 47v327h88v-287l182 85l33 -72l-215 -100v-220z" />
    <glyph glyph-name="lslash" unicode="&#x142;" horiz-adv-x="417" 
d="M126 356v344h86v-277l112 88l48 -63l-160 -125v-217c0 -33 15 -49 45 -49c17 0 37 4 60 11l10 -64c-34 -12 -64 -18 -91 -18c-73 0 -110 38 -110 114v156l-69 -54l-47 63z" />
    <glyph glyph-name="Nacute" unicode="&#x143;" horiz-adv-x="695" 
d="M527 137v531h89v-668h-98l-351 531v-531h-88v668h98zM428 926l48 -73l-172 -104l-36 55z" />
    <glyph glyph-name="nacute" unicode="&#x144;" horiz-adv-x="542" 
d="M68 0v462c79 35 156 53 231 53c116 0 178 -39 178 -171v-344h-83v329c0 89 -37 115 -104 115c-49 0 -95 -9 -138 -27v-417h-84zM357 754l48 -73l-172 -104l-36 55z" />
    <glyph glyph-name="Ncaron" unicode="&#x147;" horiz-adv-x="695" 
d="M257 897l90 -93l91 93l46 -39l-103 -114h-66l-104 114zM527 137v531h89v-668h-98l-351 531v-531h-88v668h98z" />
    <glyph glyph-name="ncaron" unicode="&#x148;" horiz-adv-x="542" 
d="M180 725l90 -93l91 93l46 -39l-103 -114h-66l-104 114zM68 0v462c79 35 156 53 231 53c116 0 178 -39 178 -171v-344h-83v329c0 89 -37 115 -104 115c-49 0 -95 -9 -138 -27v-417h-84z" />
    <glyph glyph-name="Ohungarumlaut" unicode="&#x150;" horiz-adv-x="658" 
d="M330 682c88 0 155 -27 195 -68c62 -67 83 -166 82 -280c0 -79 -7 -141 -34 -202c-36 -87 -110 -146 -246 -146c-91 0 -159 28 -199 68c-20 20 -36 46 -48 77c-23 63 -29 122 -29 203c0 100 15 175 55 242c40 68 116 106 224 106zM329 55c154 0 188 122 188 279
c0 85 -9 146 -36 199s-77 82 -152 82s-125 -29 -153 -82c-27 -53 -36 -114 -36 -199c0 -84 9 -145 36 -198c27 -52 78 -81 153 -81zM297 931l63 -60l-144 -140l-47 45zM476 928l63 -61l-144 -140l-47 45z" />
    <glyph glyph-name="ohungarumlaut" unicode="&#x151;" horiz-adv-x="542" 
d="M269 -14c-155 0 -223 73 -223 264c0 187 81 264 228 264s222 -75 222 -263c0 -177 -76 -265 -227 -265zM272 446c-42 0 -76 -14 -101 -43s-37 -80 -37 -153c0 -141 45 -196 137 -196c83 0 137 59 137 196c0 75 -11 127 -34 154c-23 28 -57 42 -102 42zM247 771l63 -60
l-144 -140l-47 45zM426 768l63 -61l-144 -140l-47 45z" />
    <glyph glyph-name="OE" unicode="&#x152;" horiz-adv-x="900" 
d="M449 73l-2 524c-36 14 -76 21 -121 21c-124 0 -186 -95 -186 -284s62 -279 191 -279c40 0 79 6 118 18zM852 74v-74h-392c-47 -11 -92 -16 -133 -16c-199 0 -276 126 -276 350c0 109 22 195 66 258c45 63 115 94 212 94c46 0 90 -6 133 -17h379v-74h-305v-214h288v-73
h-288v-234h316z" />
    <glyph glyph-name="oe" unicode="&#x153;" horiz-adv-x="879" 
d="M456 425c39 59 97 88 175 88c135 0 203 -70 203 -190c0 -21 -3 -47 -8 -77h-330c0 -133 62 -189 182 -189c47 0 89 8 128 25l11 -69c-46 -18 -103 -27 -171 -27c-92 0 -166 36 -197 95c-35 -63 -95 -95 -180 -95c-79 0 -136 20 -171 60s-52 108 -52 204
c0 187 79 264 228 264c89 0 150 -30 182 -89zM272 442c-43 0 -77 -14 -102 -42c-24 -27 -36 -77 -36 -150c0 -140 42 -192 137 -192c91 0 137 64 137 192c0 74 -11 124 -33 151s-56 41 -103 41zM634 447c-105 0 -136 -101 -136 -135h249c1 4 1 10 1 18
c0 75 -43 117 -114 117z" />
    <glyph glyph-name="Racute" unicode="&#x154;" horiz-adv-x="584" 
d="M559 0h-107l-183 259h-14c-32 0 -61 2 -87 7v-266h-89v661c62 9 119 14 171 14c60 0 104 -4 153 -21c69 -22 117 -75 117 -179c0 -108 -52 -176 -157 -203zM168 600v-264c31 -6 61 -9 89 -9c49 0 90 11 123 33c33 23 50 59 50 110c0 57 -20 96 -56 113s-71 23 -124 23
c-28 0 -55 -2 -82 -6zM346 926l48 -73l-172 -104l-36 55z" />
    <glyph glyph-name="racute" unicode="&#x155;" horiz-adv-x="337" 
d="M327 503l-11 -75c-17 4 -35 6 -54 6c-51 0 -87 -10 -110 -30v-404h-84v502h73l7 -48c33 36 77 54 133 54c15 0 31 -2 46 -5zM235 754l48 -73l-172 -104l-36 55z" />
    <glyph glyph-name="Rcaron" unicode="&#x158;" horiz-adv-x="584" 
d="M559 0h-107l-183 259h-14c-32 0 -61 2 -87 7v-266h-89v661c62 9 119 14 171 14c60 0 104 -4 153 -21c69 -22 117 -75 117 -179c0 -108 -52 -176 -157 -203zM168 600v-264c31 -6 61 -9 89 -9c49 0 90 11 123 33c33 23 50 59 50 110c0 57 -20 96 -56 113s-71 23 -124 23
c-28 0 -55 -2 -82 -6zM189 897l90 -93l91 93l46 -39l-103 -114h-66l-104 114z" />
    <glyph glyph-name="rcaron" unicode="&#x159;" horiz-adv-x="337" 
d="M100 725l90 -93l91 93l46 -39l-103 -114h-66l-104 114zM327 503l-11 -75c-17 4 -35 6 -54 6c-51 0 -87 -10 -110 -30v-404h-84v502h73l7 -48c33 36 77 54 133 54c15 0 31 -2 46 -5z" />
    <glyph glyph-name="Sacute" unicode="&#x15a;" horiz-adv-x="515" 
d="M39 29l20 75c61 -27 121 -41 179 -41c97 0 145 37 145 112c0 37 -13 65 -45 85c-32 21 -51 30 -102 47c-65 23 -114 48 -145 75s-47 64 -47 113c0 66 21 113 64 141c43 29 97 43 164 43c50 0 106 -8 167 -23l-18 -70c-57 15 -106 23 -149 23c-90 0 -135 -34 -135 -101
s48 -95 144 -128c133 -48 195 -96 195 -195c0 -67 -23 -117 -70 -150c-47 -32 -105 -48 -175 -48c-67 0 -131 14 -192 42zM337 926l48 -73l-172 -104l-36 55z" />
    <glyph glyph-name="sacute" unicode="&#x15b;" horiz-adv-x="417" 
d="M37 24l23 66c44 -18 88 -27 132 -27c65 0 103 31 103 70c0 43 -39 70 -87 86c-69 23 -160 51 -159 148c0 91 70 149 179 149c51 0 96 -9 133 -27l-17 -63c-34 11 -70 17 -109 17c-68 0 -102 -23 -102 -69c0 -41 39 -67 87 -83c70 -23 160 -50 160 -146
c0 -88 -67 -158 -191 -158c-57 0 -123 17 -152 37zM286 754l48 -73l-172 -104l-36 55z" />
    <glyph glyph-name="Scaron" unicode="&#x160;" horiz-adv-x="515" 
d="M39 29l20 75c61 -27 121 -41 179 -41c97 0 145 37 145 112c0 37 -13 65 -45 85c-32 21 -51 30 -102 47c-65 23 -114 48 -145 75s-47 64 -47 113c0 66 21 113 64 141c43 29 97 43 164 43c50 0 106 -8 167 -23l-18 -70c-57 15 -106 23 -149 23c-90 0 -135 -34 -135 -101
s48 -95 144 -128c133 -48 195 -96 195 -195c0 -67 -23 -117 -70 -150c-47 -32 -105 -48 -175 -48c-67 0 -131 14 -192 42zM163 880l90 -93l91 93l46 -39l-103 -114h-66l-104 114z" />
    <glyph glyph-name="scaron" unicode="&#x161;" horiz-adv-x="417" 
d="M37 24l23 66c44 -18 88 -27 132 -27c65 0 103 31 103 70c0 43 -39 70 -87 86c-69 23 -160 51 -159 148c0 91 70 149 179 149c51 0 96 -9 133 -27l-17 -63c-34 11 -70 17 -109 17c-68 0 -102 -23 -102 -69c0 -41 39 -67 87 -83c70 -23 160 -50 160 -146
c0 -88 -67 -158 -191 -158c-57 0 -123 17 -152 37zM120 725l90 -93l91 93l46 -39l-103 -114h-66l-104 114z" />
    <glyph glyph-name="Tcommaaccent" unicode="&#x162;" horiz-adv-x="513" 
d="M214 594h-196v74h477v-74h-195v-594h-86v594zM314 -109c0 -70 -30 -132 -89 -187h-83c55 63 82 121 82 172c0 22 -6 46 -17 72h95c8 -17 12 -36 12 -57z" />
    <glyph glyph-name="tcommaaccent" unicode="&#x163;" horiz-adv-x="350" 
d="M310 73l13 -63c-37 -13 -71 -20 -102 -20c-54 0 -90 10 -109 30c-18 21 -27 57 -27 109v306h-68v67h68v138h85v-138h166l-13 -67h-154v-316c0 -21 0 -30 7 -43s23 -19 48 -19c27 0 55 5 86 16zM260 -108c0 -70 -30 -132 -89 -187h-83c55 63 82 121 82 172
c0 22 -6 46 -17 72h95c8 -17 12 -36 12 -57z" />
    <glyph glyph-name="Tcaron" unicode="&#x164;" horiz-adv-x="513" 
d="M166 897l90 -93l91 93l46 -39l-103 -114h-66l-104 114zM214 594h-196v74h477v-74h-195v-594h-86v594z" />
    <glyph glyph-name="tcaron" unicode="&#x165;" horiz-adv-x="350" 
d="M310 73l13 -63c-37 -13 -71 -20 -102 -20c-54 0 -90 10 -109 30c-18 21 -27 57 -27 109v306h-68v67h68v138h85v-138h136l-13 -67h-124v-316c0 -21 0 -30 7 -43s23 -19 48 -19c27 0 55 5 86 16zM365 708c0 -60 -27 -113 -80 -159h-74c49 53 73 101 73 146
c0 19 -5 40 -15 61h86c7 -15 10 -31 10 -48z" />
    <glyph glyph-name="Uring" unicode="&#x16e;" horiz-adv-x="643" 
d="M393 935c18 -19 27 -43 27 -72s-9 -53 -27 -74c-18 -20 -44 -30 -77 -30s-59 10 -76 30s-26 44 -26 73s9 53 26 72c18 20 44 30 77 30s59 -10 76 -29zM361 863c0 25 -13 47 -44 47c-58 0 -59 -97 -1 -97c31 0 45 23 45 50zM568 668v-425c0 -176 -72 -256 -247 -257
c-168 0 -246 81 -246 257v425h88v-410c0 -135 36 -197 160 -197c59 0 100 15 123 45c23 31 35 81 35 152v410h87z" />
    <glyph glyph-name="uring" unicode="&#x16f;" 
d="M344 763c18 -19 27 -43 27 -72s-9 -53 -27 -74c-18 -20 -44 -30 -77 -30s-59 10 -76 30s-26 44 -26 73s9 53 26 72c18 20 44 30 77 30s59 -10 76 -29zM312 691c0 25 -13 47 -44 47c-58 0 -59 -97 -1 -97c31 0 45 23 45 50zM384 502h84v-479c-69 -25 -140 -37 -212 -37
c-128 0 -192 60 -192 180v336h84v-331c0 -87 46 -116 134 -116c33 0 67 6 102 17v430z" />
    <glyph glyph-name="Uhungarumlaut" unicode="&#x170;" horiz-adv-x="643" 
d="M568 668v-425c0 -176 -72 -256 -247 -257c-168 0 -246 81 -246 257v425h88v-410c0 -135 36 -197 160 -197c59 0 100 15 123 45c23 31 35 81 35 152v410h87zM298 932l63 -60l-144 -140l-47 45zM477 929l63 -61l-144 -140l-47 45z" />
    <glyph glyph-name="uhungarumlaut" unicode="&#x171;" 
d="M384 502h84v-479c-69 -25 -140 -37 -212 -37c-128 0 -192 60 -192 180v336h84v-331c0 -87 46 -116 134 -116c33 0 67 6 102 17v430zM251 771l63 -60l-144 -140l-47 45zM430 768l63 -61l-144 -140l-47 45z" />
    <glyph glyph-name="Ydieresis" unicode="&#x178;" horiz-adv-x="553" 
d="M236 736h-83v104h83v-104zM416 736h-83v104h83v-104zM232 275l-229 393h100l176 -306l176 306h93l-226 -393v-275h-90v275z" />
    <glyph glyph-name="Zacute" unicode="&#x179;" horiz-adv-x="557" 
d="M145 74h376v-74h-475l-7 62l354 532h-339l-12 74h446l8 -66zM355 926l48 -73l-172 -104l-36 55z" />
    <glyph glyph-name="zacute" unicode="&#x17a;" horiz-adv-x="458" 
d="M133 70h293v-70h-385l-10 59l274 374h-244l-12 69h349l8 -62zM291 754l48 -73l-172 -104l-36 55z" />
    <glyph glyph-name="Zdotaccent" unicode="&#x17b;" horiz-adv-x="557" 
d="M145 74h376v-74h-475l-7 62l354 532h-339l-12 74h446l8 -66zM319 773h-83v104h83v-104z" />
    <glyph glyph-name="zdotaccent" unicode="&#x17c;" horiz-adv-x="458" 
d="M133 70h293v-70h-385l-10 59l274 374h-244l-12 69h349l8 -62zM273 601h-83v104h83v-104z" />
    <glyph glyph-name="Zcaron" unicode="&#x17d;" horiz-adv-x="557" 
d="M188 880l90 -93l91 93l46 -39l-103 -114h-66l-104 114zM145 74h376v-74h-475l-7 62l354 532h-339l-12 74h446l8 -66z" />
    <glyph glyph-name="zcaron" unicode="&#x17e;" horiz-adv-x="458" 
d="M138 725l90 -93l91 93l46 -39l-103 -114h-66l-104 114zM133 70h293v-70h-385l-10 59l274 374h-244l-12 69h349l8 -62z" />
    <glyph glyph-name="florin" unicode="&#x192;" horiz-adv-x="343" 
d="M119 -59v494h-98v67h98v40c0 129 60 179 181 179c29 0 67 -4 112 -11l-13 -66c-40 5 -74 7 -103 7c-65 0 -93 -23 -93 -106v-43h149v-67h-149v-491c0 -129 -60 -179 -181 -179c-29 0 -67 4 -112 11l13 66c40 -5 74 -7 103 -7c65 0 93 23 93 106z" />
    <glyph glyph-name="Scommaaccent" unicode="&#x218;" horiz-adv-x="515" 
d="M39 29l20 75c61 -27 121 -41 179 -41c97 0 145 37 145 112c0 37 -13 65 -45 85c-32 21 -51 30 -102 47c-65 23 -114 48 -145 75s-47 64 -47 113c0 66 21 113 64 141c43 29 97 43 164 43c50 0 106 -8 167 -23l-18 -70c-57 15 -106 23 -149 23c-90 0 -135 -34 -135 -101
s48 -95 144 -128c133 -48 195 -96 195 -195c0 -67 -23 -117 -70 -150c-47 -32 -105 -48 -175 -48c-67 0 -131 14 -192 42zM311 -107c0 -70 -30 -132 -89 -187h-83c55 63 82 121 82 172c0 22 -6 46 -17 72h95c8 -17 12 -36 12 -57z" />
    <glyph glyph-name="scommaaccent" unicode="&#x219;" horiz-adv-x="417" 
d="M37 24l23 66c44 -18 88 -27 132 -27c65 0 103 31 103 70c0 43 -39 70 -87 86c-69 23 -160 51 -159 148c0 91 70 149 179 149c51 0 96 -9 133 -27l-17 -63c-34 11 -70 17 -109 17c-68 0 -102 -23 -102 -69c0 -41 39 -67 87 -83c70 -23 160 -50 160 -146
c0 -88 -67 -158 -191 -158c-57 0 -123 17 -152 37zM267 -108c0 -70 -30 -132 -89 -187h-83c55 63 82 121 82 172c0 22 -6 46 -17 72h95c8 -17 12 -36 12 -57z" />
    <glyph glyph-name="circumflex" unicode="&#x2c6;" horiz-adv-x="384" 
d="M273 581l-80 86l-85 -86l-48 36l99 110h65l100 -110z" />
    <glyph glyph-name="caron" unicode="&#x2c7;" horiz-adv-x="432" 
d="M133 725l90 -93l91 93l46 -39l-103 -114h-66l-104 114z" />
    <glyph glyph-name="breve" unicode="&#x2d8;" horiz-adv-x="336" 
d="M60 670h59c0 -33 16 -50 48 -50c33 0 50 17 50 50h59c0 -57 -38 -104 -109 -104c-72 0 -107 45 -107 104z" />
    <glyph glyph-name="dotaccent" unicode="&#x2d9;" horiz-adv-x="163" 
d="M123 601h-83v104h83v-104z" />
    <glyph glyph-name="ring" unicode="&#x2da;" horiz-adv-x="335" 
d="M239 763c18 -19 27 -43 27 -72s-9 -53 -27 -74c-18 -20 -44 -30 -77 -30s-59 10 -76 30s-26 44 -26 73s9 53 26 72c18 20 44 30 77 30s59 -10 76 -29zM207 691c0 25 -13 47 -44 47c-58 0 -59 -97 -1 -97c31 0 45 23 45 50z" />
    <glyph glyph-name="ogonek" unicode="&#x2db;" horiz-adv-x="332" 
d="M123 -13h82c-35 -37 -53 -69 -53 -95c0 -23 14 -35 42 -35c15 0 35 4 58 13l13 -70c-33 -14 -64 -21 -93 -21c-63 0 -108 35 -108 84c0 43 20 85 59 124z" />
    <glyph glyph-name="tilde" unicode="&#x2dc;" horiz-adv-x="515" 
d="M138 593l-44 37c25 40 62 71 97 71c15 0 37 -7 68 -22c31 -14 54 -21 67 -21s31 14 56 42l43 -36c-27 -45 -71 -77 -107 -77c-15 0 -38 7 -67 21c-29 15 -50 22 -63 22s-29 -12 -50 -37z" />
    <glyph glyph-name="hungarumlaut" unicode="&#x2dd;" horiz-adv-x="503" 
d="M195 756l63 -60l-144 -140l-47 45zM374 753l63 -61l-144 -140l-47 45z" />
    <glyph glyph-name="endash" unicode="&#x2013;" horiz-adv-x="556" 
d="M63 318h430v-79h-430v79z" />
    <glyph glyph-name="emdash" unicode="&#x2014;" horiz-adv-x="836" 
d="M63 318h710v-79h-710v79z" />
    <glyph glyph-name="quoteleft" unicode="&#x2018;" horiz-adv-x="223" 
d="M52 532c0 70 30 132 89 187h83c-55 -63 -82 -121 -82 -172c0 -22 6 -46 17 -72h-95c-8 17 -12 36 -12 57z" />
    <glyph glyph-name="quoteright" unicode="&#x2019;" horiz-adv-x="255" 
d="M215 643c0 -70 -30 -132 -89 -187h-83c55 63 82 121 82 172c0 22 -6 46 -17 72h95c8 -17 12 -36 12 -57z" />
    <glyph glyph-name="quotesinglbase" unicode="&#x201a;" horiz-adv-x="220" 
d="M163 59c0 -70 -30 -132 -89 -187h-83c55 63 82 121 82 172c0 22 -6 46 -17 72h95c8 -17 12 -36 12 -57z" />
    <glyph glyph-name="quotedblleft" unicode="&#x201c;" horiz-adv-x="393" 
d="M222 532c0 70 30 132 89 187h83c-55 -63 -82 -121 -82 -172c0 -22 6 -46 17 -72h-95c-8 17 -12 36 -12 57zM52 532c0 70 30 132 89 187h83c-55 -63 -82 -121 -82 -172c0 -22 6 -46 17 -72h-95c-8 17 -12 36 -12 57z" />
    <glyph glyph-name="quotedblright" unicode="&#x201d;" horiz-adv-x="425" 
d="M215 643c0 -70 -30 -132 -89 -187h-83c55 63 82 121 82 172c0 22 -6 46 -17 72h95c8 -17 12 -36 12 -57zM385 643c0 -70 -30 -132 -89 -187h-83c55 63 82 121 82 172c0 22 -6 46 -17 72h95c8 -17 12 -36 12 -57z" />
    <glyph glyph-name="quotedblbase" unicode="&#x201e;" horiz-adv-x="390" 
d="M163 59c0 -70 -30 -132 -89 -187h-83c55 63 82 121 82 172c0 22 -6 46 -17 72h95c8 -17 12 -36 12 -57zM333 59c0 -70 -30 -132 -89 -187h-83c55 63 82 121 82 172c0 22 -6 46 -17 72h95c8 -17 12 -36 12 -57z" />
    <glyph glyph-name="dagger" unicode="&#x2020;" horiz-adv-x="428" 
d="M237 465l162 15v-88l-162 15l25 -407h-106l25 407l-152 -15v88l152 -15l-27 204h110z" />
    <glyph glyph-name="daggerdbl" unicode="&#x2021;" horiz-adv-x="435" 
d="M241 459l21 -118l-21 -126l143 13v-78l-143 13l24 -163h-94l23 163l-143 -13v78l143 -13l-20 126l20 118l-143 -13v79l143 -14l-23 163h94l-24 -163l143 14v-79z" />
    <glyph glyph-name="bullet" unicode="&#x2022;" horiz-adv-x="371" 
d="M185 440c67 0 117 -50 117 -117s-50 -117 -117 -117c-65 0 -116 50 -116 117s51 117 116 117z" />
    <glyph glyph-name="ellipsis" unicode="&#x2026;" horiz-adv-x="662" 
d="M170 0h-110v110h110v-110zM616 0h-110v110h110v-110zM394 0h-110v110h110v-110z" />
    <glyph glyph-name="perthousand" unicode="&#x2030;" horiz-adv-x="1121" 
d="M174 327c-47 0 -83 12 -106 37s-34 72 -34 142s12 118 36 143s60 38 107 38s82 -13 105 -38s35 -73 35 -142c0 -70 -12 -118 -36 -143c-23 -25 -59 -37 -107 -37zM175 632c-24 0 -42 -10 -53 -29s-16 -51 -16 -96s5 -77 16 -96s29 -28 53 -28c48 0 69 33 69 124
c0 89 -22 125 -69 125zM594 -7c-47 0 -83 12 -106 37s-34 72 -34 142s12 118 36 143s60 38 107 38s82 -13 105 -38s35 -73 35 -142c0 -70 -12 -118 -36 -143c-23 -25 -59 -37 -107 -37zM595 298c-47 0 -68 -34 -68 -125s21 -124 68 -124c48 0 69 33 69 124s-21 125 -69 125z
M619 701l-361 -701h-92l362 701h91zM944 -7c-47 0 -83 12 -106 37s-34 72 -34 142s12 118 36 143s60 38 107 38s82 -13 105 -38s35 -73 35 -142c0 -70 -12 -118 -36 -143c-23 -25 -59 -37 -107 -37zM945 298c-47 0 -68 -34 -68 -125s20 -124 68 -124s69 33 69 124
s-21 125 -69 125z" />
    <glyph glyph-name="guilsinglleft" unicode="&#x2039;" horiz-adv-x="325" 
d="M218 481l58 -50l-149 -154l149 -153l-58 -51l-171 180v48z" />
    <glyph glyph-name="guilsinglright" unicode="&#x203a;" horiz-adv-x="321" 
d="M46 155l148 153l-148 154l58 50l171 -180v-48l-171 -180z" />
    <glyph glyph-name="fraction" unicode="&#x2044;" horiz-adv-x="402" 
d="M324 710l73 -26l-317 -748l-75 26z" />
    <glyph glyph-name="Euro" unicode="&#x20ac;" horiz-adv-x="617" 
d="M40 385v64h86c16 84 49 144 100 179c51 36 111 54 181 54c63 0 121 -9 174 -26l-15 -68c-51 15 -103 22 -156 22c-104 0 -167 -54 -190 -161h192v-64h-201c-1 -10 -1 -25 -1 -46c0 -19 0 -32 1 -40h201v-64h-195c21 -129 89 -176 202 -176c37 0 87 5 149 16l9 -70
c-53 -13 -108 -19 -167 -19c-163 0 -259 83 -286 249h-84v64h77c-1 9 -1 22 -1 39c0 21 0 37 1 47h-77z" />
    <glyph glyph-name="trademark" unicode="&#x2122;" horiz-adv-x="752" 
d="M349 664h62l100 -275l101 275h62l18 -371h-50l-9 264v46l-101 -269h-41l-102 269v-46l-9 -264h-49zM144 293v323h-96v48h246v-48h-97v-323h-53z" />
    <glyph glyph-name="minus" unicode="&#x2212;" horiz-adv-x="504" 
d="M63 310h378v-61h-378v61z" />
    <glyph glyph-name="CR" horiz-adv-x="435" 
 />
    <glyph glyph-name="plus.001" horiz-adv-x="484" 
d="M281 239v-154h-79v154h-152v79h152v152h79v-152h153v-79h-153z" />
    <glyph glyph-name="asterisk.001" horiz-adv-x="334" 
d="M320 579l-102 -40l102 -45l-41 -66l-83 66l9 -112h-77l9 114l-84 -68l-39 67l102 42l-102 42l38 69l85 -67l-9 112h77l-8 -112l83 67z" />
    <glyph glyph-name="_0127" horiz-adv-x="0" 
 />
    <glyph glyph-name="_0129" horiz-adv-x="0" 
 />
    <glyph glyph-name="_0007" horiz-adv-x="0" 
 />
    <glyph glyph-name="_0009" horiz-adv-x="0" 
 />
    <glyph glyph-name="_0141" horiz-adv-x="0" 
 />
    <glyph glyph-name="_0142" horiz-adv-x="0" 
 />
    <glyph glyph-name="_0143" horiz-adv-x="0" 
 />
    <glyph glyph-name="_0144" horiz-adv-x="0" 
 />
    <glyph glyph-name="_0157" horiz-adv-x="0" 
 />
    <glyph glyph-name="_0158" horiz-adv-x="0" 
 />
    <glyph glyph-name="g.alt" horiz-adv-x="536" 
d="M384 71v359c-33 8 -63 12 -91 12c-101 0 -161 -51 -161 -183c0 -137 45 -208 152 -208c39 0 72 7 100 20zM471 481v-500c0 -139 -73 -208 -219 -208c-53 0 -112 10 -178 29l10 73c60 -19 118 -29 174 -29c80 0 126 35 126 139v20c-27 -14 -63 -21 -107 -21
c-96 0 -161 30 -193 85c-31 56 -40 110 -40 191c0 167 82 251 245 251c64 0 125 -10 182 -30z" />
    <glyph glyph-name="y.alt" horiz-adv-x="542" 
d="M264 -154c80 0 126 35 126 139v15c-31 -13 -63 -19 -95 -19c-85 0 -145 25 -180 74s-52 119 -52 209c0 93 19 172 57 238h91c-37 -52 -63 -148 -63 -236c0 -145 51 -218 152 -218c34 0 64 6 91 17v437h84v-521c0 -139 -72 -208 -217 -208c-51 0 -110 10 -178 30l10 72
c57 -19 115 -29 174 -29z" />
    <glyph glyph-name="r.alt" horiz-adv-x="355" 
d="M345 501l-12 -61c-21 4 -42 6 -63 6c-43 0 -83 -10 -118 -30v-416h-84v457c59 35 126 52 201 52c26 0 51 -3 76 -8z" />
    <glyph glyph-name="i.alt" horiz-adv-x="225" 
d="M49 93v409h83v-402c0 -31 10 -46 31 -46c19 0 38 4 57 11l9 -62c-35 -11 -62 -17 -83 -17c-44 0 -73 15 -84 40c-11 27 -13 42 -13 67zM132 601h-83v104h83v-104z" />
    <glyph glyph-name="a.alt" horiz-adv-x="523" 
d="M456 -15c-37 0 -59 14 -68 43c-43 -27 -86 -40 -131 -40c-143 0 -214 86 -214 257c0 95 23 163 68 204c46 41 106 61 179 61c58 0 115 -10 171 -29v-381c0 -35 5 -48 25 -48c7 0 18 3 33 8l14 -52c-21 -15 -47 -23 -77 -23zM375 87v341c-29 9 -57 13 -85 13
c-96 0 -159 -59 -159 -202c0 -119 42 -181 142 -181c37 0 71 10 102 29z" />
    </font>
</defs>
</svg>
